<svg width="160" height="160" viewBox="0 0 160 160" fill="none" xmlns="http://www.w3.org/2000/svg">
<path fill-rule="evenodd" clip-rule="evenodd" d="M76.4431 43.8825L82.8972 56.7655H137.812V40.5468H108.125C102.094 40.5468 97.1875 35.6496 97.1875 29.6303V0H26.875C24.2862 0 22.1875 2.09471 22.1875 4.67847V31.8136H56.8775C65.2166 31.8136 72.7137 36.4381 76.4431 43.8825ZM108.125 31.19H135.067L106.562 2.7408V29.6305C106.562 30.4904 107.263 31.19 108.125 31.19ZM147.188 38.9249V57.0736H147.5C152.145 57.0736 156.454 58.5308 160 61.0048V55.5141C160 47.5638 154.553 40.8612 147.188 38.9249ZM147.5 66.4306H80C79.1294 66.4306 78.2761 66.1886 77.5355 65.7319C76.795 65.2751 76.1965 64.6215 75.8072 63.8443L68.0578 48.3751C67.0196 46.3028 65.4238 44.56 63.4491 43.3419C61.4744 42.1239 59.1989 41.4787 56.8775 41.4787H12.5C5.59656 41.4787 0 47.0645 0 53.9546V147.524C0 154.414 5.59656 160 12.5 160H147.5C154.403 160 160 154.414 160 147.524V78.9065C160 72.0163 154.403 66.4306 147.5 66.4306Z" fill="url(#paint0_linear_263_272)"/>
<path d="M55.0391 126.838H34.3164V121.76L41.2891 114.709C43.2812 112.626 44.5833 111.207 45.1953 110.452C45.8073 109.683 46.2305 109.026 46.4648 108.479C46.7122 107.932 46.8359 107.359 46.8359 106.76C46.8359 106.018 46.5951 105.432 46.1133 105.002C45.6315 104.573 44.9544 104.358 44.082 104.358C43.1836 104.358 42.2721 104.618 41.3477 105.139C40.4362 105.647 39.401 106.402 38.2422 107.405L34.0039 102.444C35.4753 101.129 36.7122 100.191 37.7148 99.6313C38.7174 99.0584 39.8047 98.6222 40.9766 98.3228C42.1615 98.0233 43.4896 97.8735 44.9609 97.8735C46.8099 97.8735 48.457 98.1991 49.9023 98.8501C51.3607 99.5011 52.487 100.432 53.2812 101.643C54.0885 102.841 54.4922 104.189 54.4922 105.686C54.4922 106.806 54.349 107.841 54.0625 108.792C53.7891 109.742 53.3594 110.68 52.7734 111.604C52.1875 112.515 51.4062 113.479 50.4297 114.495C49.4661 115.51 47.4023 117.437 44.2383 120.276V120.471H55.0391V126.838ZM78.5938 112.6C78.5938 117.652 77.7474 121.357 76.0547 123.713C74.362 126.057 71.7708 127.229 68.2812 127.229C64.8698 127.229 62.2982 126.005 60.5664 123.557C58.8346 121.096 57.9688 117.444 57.9688 112.6C57.9688 107.522 58.8151 103.798 60.5078 101.428C62.2005 99.0584 64.7917 97.8735 68.2812 97.8735C71.6797 97.8735 74.2448 99.1105 75.9766 101.584C77.7214 104.045 78.5938 107.717 78.5938 112.6ZM65.6445 112.6C65.6445 115.829 65.8464 118.049 66.25 119.26C66.6536 120.471 67.3307 121.077 68.2812 121.077C69.2448 121.077 69.9219 120.452 70.3125 119.202C70.7161 117.952 70.918 115.751 70.918 112.6C70.918 109.436 70.7161 107.222 70.3125 105.959C69.9089 104.683 69.2318 104.045 68.2812 104.045C67.3307 104.045 66.6536 104.657 66.25 105.881C65.8464 107.105 65.6445 109.345 65.6445 112.6ZM98.3984 126.838H90.5664V111.721C90.5664 109.885 90.6055 108.206 90.6836 106.682C90.2018 107.268 89.6029 107.88 88.8867 108.518L85.6445 111.194L81.6406 106.272L91.4453 98.2837H98.3984V126.838ZM104.805 114.768C104.805 110.784 105.371 107.561 106.504 105.1C107.65 102.626 109.329 100.803 111.543 99.6313C113.77 98.4595 116.51 97.8735 119.766 97.8735C120.924 97.8735 122.279 97.9842 123.828 98.2056V104.241C122.526 103.993 121.113 103.87 119.59 103.87C117.012 103.87 115.091 104.436 113.828 105.569C112.565 106.702 111.875 108.551 111.758 111.116H111.992C113.164 108.902 115.046 107.795 117.637 107.795C120.176 107.795 122.142 108.616 123.535 110.256C124.941 111.884 125.645 114.156 125.645 117.073C125.645 120.211 124.759 122.691 122.988 124.514C121.217 126.324 118.743 127.229 115.566 127.229C112.194 127.229 109.557 126.135 107.656 123.948C105.755 121.76 104.805 118.7 104.805 114.768ZM115.391 121.116C116.211 121.116 116.875 120.81 117.383 120.198C117.904 119.573 118.164 118.583 118.164 117.229C118.164 114.911 117.266 113.752 115.469 113.752C114.583 113.752 113.861 114.052 113.301 114.651C112.754 115.25 112.48 115.979 112.48 116.838C112.48 118.088 112.747 119.117 113.281 119.924C113.815 120.719 114.518 121.116 115.391 121.116Z" fill="white"/>
<defs>
<linearGradient id="paint0_linear_263_272" x1="80" y1="34.4336" x2="33.1539" y2="146.282" gradientUnits="userSpaceOnUse">
<stop stop-color="#224A81"/>
<stop offset="1" stop-color="#2797D3"/>
</linearGradient>
</defs>
</svg>
