<svg width="160" height="160" viewBox="0 0 160 160" fill="none" xmlns="http://www.w3.org/2000/svg">
<path fill-rule="evenodd" clip-rule="evenodd" d="M76.4431 43.9672L82.8972 56.875H137.812V40.625H108.125C102.094 40.625 97.1875 35.7184 97.1875 29.6875V0H26.875C24.2862 0 22.1875 2.09875 22.1875 4.6875V31.875H56.8775C65.2166 31.875 72.7137 36.5084 76.4431 43.9672ZM108.125 31.2502H135.067L106.562 2.74609V29.6877C106.562 30.5492 107.263 31.2502 108.125 31.2502ZM147.188 38.6899V56.8737H147.5C152.145 56.8737 156.454 58.3337 160 60.8124V55.3112C160 47.3456 154.553 40.6299 147.188 38.6899ZM147.5 66.2487H80C79.1294 66.2487 78.2761 66.0063 77.5355 65.5486C76.795 65.091 76.1965 64.4361 75.8072 63.6574L68.0578 48.1584C67.0196 46.0821 65.4238 44.3359 63.4491 43.1155C61.4744 41.8951 59.1989 41.2487 56.8775 41.2487H12.5C5.59656 41.2487 0 46.8453 0 53.7487V147.499C0 154.402 5.59656 159.999 12.5 159.999H147.5C154.403 159.999 160 154.402 160 147.499V78.7487C160 71.8453 154.403 66.2487 147.5 66.2487Z" fill="url(#paint0_linear_263_273)"/>
<path d="M55.0391 127H34.3164V121.922L41.2891 114.871C43.2812 112.788 44.5833 111.368 45.1953 110.613C45.8073 109.845 46.2305 109.188 46.4648 108.641C46.7122 108.094 46.8359 107.521 46.8359 106.922C46.8359 106.18 46.5951 105.594 46.1133 105.164C45.6315 104.734 44.9544 104.52 44.082 104.52C43.1836 104.52 42.2721 104.78 41.3477 105.301C40.4362 105.809 39.401 106.564 38.2422 107.566L34.0039 102.605C35.4753 101.29 36.7122 100.353 37.7148 99.793C38.7174 99.2201 39.8047 98.7839 40.9766 98.4844C42.1615 98.1849 43.4896 98.0352 44.9609 98.0352C46.8099 98.0352 48.457 98.3607 49.9023 99.0117C51.3607 99.6628 52.487 100.594 53.2812 101.805C54.0885 103.003 54.4922 104.35 54.4922 105.848C54.4922 106.967 54.349 108.003 54.0625 108.953C53.7891 109.904 53.3594 110.841 52.7734 111.766C52.1875 112.677 51.4062 113.641 50.4297 114.656C49.4661 115.672 47.4023 117.599 44.2383 120.438V120.633H55.0391V127ZM78.5938 112.762C78.5938 117.814 77.7474 121.518 76.0547 123.875C74.362 126.219 71.7708 127.391 68.2812 127.391C64.8698 127.391 62.2982 126.167 60.5664 123.719C58.8346 121.258 57.9688 117.605 57.9688 112.762C57.9688 107.684 58.8151 103.96 60.5078 101.59C62.2005 99.2201 64.7917 98.0352 68.2812 98.0352C71.6797 98.0352 74.2448 99.2721 75.9766 101.746C77.7214 104.207 78.5938 107.879 78.5938 112.762ZM65.6445 112.762C65.6445 115.991 65.8464 118.211 66.25 119.422C66.6536 120.633 67.3307 121.238 68.2812 121.238C69.2448 121.238 69.9219 120.613 70.3125 119.363C70.7161 118.113 70.918 115.913 70.918 112.762C70.918 109.598 70.7161 107.384 70.3125 106.121C69.9089 104.845 69.2318 104.207 68.2812 104.207C67.3307 104.207 66.6536 104.819 66.25 106.043C65.8464 107.267 65.6445 109.507 65.6445 112.762ZM98.3984 127H90.5664V111.883C90.5664 110.047 90.6055 108.367 90.6836 106.844C90.2018 107.43 89.6029 108.042 88.8867 108.68L85.6445 111.355L81.6406 106.434L91.4453 98.4453H98.3984V127ZM115.234 98.0352C118.242 98.0352 120.579 98.6406 122.246 99.8516C123.926 101.062 124.766 102.781 124.766 105.008C124.766 106.518 124.368 107.846 123.574 108.992C122.793 110.125 121.549 111.115 119.844 111.961C121.953 113.159 123.438 114.357 124.297 115.555C125.169 116.74 125.605 118.022 125.605 119.402C125.605 121.941 124.688 123.908 122.852 125.301C121.016 126.694 118.451 127.391 115.156 127.391C111.797 127.391 109.225 126.714 107.441 125.359C105.658 123.992 104.766 122.033 104.766 119.48C104.766 117.827 105.163 116.421 105.957 115.262C106.751 114.09 108.086 113.029 109.961 112.078C108.451 111.062 107.344 109.975 106.641 108.816C105.951 107.645 105.605 106.362 105.605 104.969C105.605 102.781 106.458 101.082 108.164 99.8711C109.87 98.6471 112.227 98.0352 115.234 98.0352ZM111.836 119.168C111.836 119.975 112.122 120.626 112.695 121.121C113.268 121.603 114.062 121.844 115.078 121.844C117.37 121.844 118.516 121.004 118.516 119.324C118.516 118.686 118.262 118.061 117.754 117.449C117.259 116.824 116.367 116.128 115.078 115.359C113.919 115.971 113.086 116.59 112.578 117.215C112.083 117.827 111.836 118.478 111.836 119.168ZM115.195 103.602C114.531 103.602 113.971 103.797 113.516 104.188C113.06 104.565 112.832 105.06 112.832 105.672C112.832 106.792 113.594 107.781 115.117 108.641C116.042 108.107 116.673 107.618 117.012 107.176C117.35 106.733 117.52 106.232 117.52 105.672C117.52 105.047 117.292 104.546 116.836 104.168C116.38 103.79 115.833 103.602 115.195 103.602Z" fill="white"/>
<defs>
<linearGradient id="paint0_linear_263_273" x1="93" y1="36" x2="41" y2="142.5" gradientUnits="userSpaceOnUse">
<stop stop-color="#224A81"/>
<stop offset="1" stop-color="#2797D3"/>
</linearGradient>
</defs>
</svg>
