<svg width="120" height="120" viewBox="0 0 120 120" fill="none" xmlns="http://www.w3.org/2000/svg">
<path d="M116.703 80.433L96.3197 60.05L116.703 39.6669C118.701 37.6686 119.9 34.8709 119.9 31.6736C119.9 28.4763 118.701 25.6786 116.703 23.6803L96.3197 3.29725C94.3214 1.29892 91.5237 0.0999169 88.3264 0.0999169C85.5287 0.0999169 82.7311 1.29892 80.3331 3.29725L59.9501 23.6803L39.567 3.29725C35.1707 -1.09908 27.9767 -1.09908 23.5804 3.29725L3.19734 23.6803C1.199 26.0783 0 28.8759 0 31.6736C0 34.4713 1.199 37.6686 3.19734 39.6669L23.5804 60.05L3.19734 80.433C1.199 82.4313 0 85.229 0 88.4263C0 91.6236 1.199 94.4213 3.19734 96.4196L23.5804 116.803C25.5787 118.801 28.3764 120 31.5737 120C34.3714 120 37.169 118.801 39.567 116.803L59.9501 96.4196L80.3331 116.803C82.3314 118.801 85.5287 120 88.3264 120C91.1241 120 93.9217 118.801 96.3197 116.803L116.703 96.4196C121.099 92.0233 121.099 84.8293 116.703 80.433ZM111.107 90.4246L90.7244 110.808C89.5254 112.007 87.5271 112.007 86.3281 110.808L8.79267 34.0716C8.39301 33.2723 7.99334 32.4729 7.99334 31.6736C7.99334 30.8743 8.39301 30.0749 8.79267 29.2756L29.1757 8.89259C30.3747 7.69359 32.373 7.69359 33.572 8.89259L110.708 86.0283C112.306 87.2273 112.306 89.2256 111.107 90.4246Z" fill="url(#paint0_linear_108_377)"/>
<path d="M56.3567 35.67C54.758 34.0714 52.36 34.0714 50.7613 35.67L35.574 50.8574C33.9753 52.456 33.9753 54.854 35.574 56.4527L63.151 84.0297C63.9504 84.8291 64.7497 85.2287 65.9487 85.2287C67.1477 85.2287 67.947 84.8291 68.7464 84.0297L83.9337 68.8424C84.733 68.0431 85.1327 67.2437 85.1327 66.0447C85.1327 64.8457 84.733 64.0464 83.9337 63.247L56.3567 35.67Z" fill="url(#paint1_linear_108_377)"/>
<defs>
<linearGradient id="paint0_linear_108_377" x1="84.1667" y1="20.4167" x2="-4.62622e-06" y2="107.083" gradientUnits="userSpaceOnUse">
<stop stop-color="#224A81"/>
<stop offset="1" stop-color="#2797D3"/>
</linearGradient>
<linearGradient id="paint1_linear_108_377" x1="84.1667" y1="20.4167" x2="-4.62622e-06" y2="107.083" gradientUnits="userSpaceOnUse">
<stop stop-color="#224A81"/>
<stop offset="1" stop-color="#2797D3"/>
</linearGradient>
</defs>
</svg>
