<svg width="120" height="120" viewBox="0 0 120 120" fill="none" xmlns="http://www.w3.org/2000/svg">
<path d="M5 46.6799V107.4C5 114.36 10.6399 120 17.6001 120H103.36C110.32 120 115.96 114.36 115.96 107.4V62.0798C115.96 56.04 111.68 51 106 49.76V8.28C106 3.71996 102.28 0 97.72 0H23.24C18.68 0 14.96 3.71996 14.96 8.28004V34.3599C9.28004 35.5998 5 40.6399 5 46.6799V46.6799ZM82.0801 92.3198C82.0801 94.52 80.28 96.3198 78.0801 96.3198H72.0801V102.32C72.0801 104.52 70.28 106.32 68.0801 106.32H52.8799C50.6799 106.32 48.8799 104.52 48.8799 102.32V96.3198H42.8799C40.6799 96.3198 38.8799 94.52 38.8799 92.3198V77.1599C38.8799 74.96 40.6799 73.1599 42.8799 73.1599H48.8799V67.1599C48.8799 64.96 50.6799 63.1599 52.8799 63.1599H68.0801C70.28 63.1599 72.0801 64.96 72.0801 67.1599V73.1599H78.0801C80.28 73.1599 82.0801 74.96 82.0801 77.1599V92.3198ZM22.96 8.28004C22.96 8.11988 23.0801 8 23.24 8H97.72C97.8799 8 98 8.11988 98 8.28004V49.48H65.8799C64.1199 49.48 62.52 48.48 61.76 46.8799L59.0801 41.24C57 36.8799 52.52 34.0798 47.72 34.0798H22.96V8.28004Z" fill="url(#paint0_linear_168_138)"/>
<path d="M64.0752 77.1597V71.1597H56.875V77.1597C56.875 79.3596 55.115 81.1597 52.875 81.1597H46.875V88.3196H52.875C55.115 88.3196 56.875 90.1196 56.875 92.3196V98.3196H64.0752V92.3196C64.0752 90.1196 65.8352 88.3196 68.0752 88.3196H74.0752V81.1597H68.0752C65.8352 81.1597 64.0752 79.3596 64.0752 77.1597Z" fill="url(#paint1_linear_168_138)"/>
<path d="M31.2891 19.2988H58.3711C60.582 19.2988 62.3711 17.5078 62.3711 15.2988C62.3711 13.0898 60.582 11.2988 58.3711 11.2988H31.2891C29.0781 11.2988 27.2891 13.0898 27.2891 15.2988C27.2891 17.5078 29.0781 19.2988 31.2891 19.2988Z" fill="url(#paint2_linear_168_138)"/>
<path d="M62.3711 26.7915C62.3711 24.5825 60.582 22.7915 58.3711 22.7915H31.2891C29.0781 22.7915 27.2891 24.5825 27.2891 26.7915C27.2891 29.0005 29.0781 30.7915 31.2891 30.7915H58.3711C60.582 30.7915 62.3711 29.0005 62.3711 26.7915V26.7915Z" fill="url(#paint3_linear_168_138)"/>
<path d="M80.2798 38.5202C87.7598 38.5202 93.8796 32.4001 93.8796 24.9202C93.8796 17.4002 87.7597 11.2803 80.2798 11.2803C72.7598 11.2803 66.6797 17.4002 66.6797 24.9202C66.6797 32.4002 72.7598 38.5202 80.2798 38.5202ZM80.2798 19.2803C83.3596 19.2803 85.8796 21.8003 85.8796 24.9202C85.8796 28.0002 83.3596 30.5202 80.2798 30.5202C77.1997 30.5202 74.6797 28.0002 74.6797 24.9202C74.6797 21.8003 77.1997 19.2803 80.2798 19.2803V19.2803Z" fill="url(#paint4_linear_168_138)"/>
<defs>
<linearGradient id="paint0_linear_168_138" x1="80.8333" y1="22.0833" x2="13.75" y2="120.417" gradientUnits="userSpaceOnUse">
<stop stop-color="#224A81"/>
<stop offset="1" stop-color="#2797D3"/>
</linearGradient>
<linearGradient id="paint1_linear_168_138" x1="65.4644" y1="76.1578" x2="50.7568" y2="99.5079" gradientUnits="userSpaceOnUse">
<stop stop-color="#224A81"/>
<stop offset="1" stop-color="#2797D3"/>
</linearGradient>
<linearGradient id="paint2_linear_168_138" x1="51.2652" y1="12.7711" x2="49.9113" y2="22.1828" gradientUnits="userSpaceOnUse">
<stop stop-color="#224A81"/>
<stop offset="1" stop-color="#2797D3"/>
</linearGradient>
<linearGradient id="paint3_linear_168_138" x1="51.2651" y1="24.2637" x2="49.9113" y2="33.6755" gradientUnits="userSpaceOnUse">
<stop stop-color="#224A81"/>
<stop offset="1" stop-color="#2797D3"/>
</linearGradient>
<linearGradient id="paint4_linear_168_138" x1="85.2689" y1="16.2932" x2="70.4992" y2="39.6727" gradientUnits="userSpaceOnUse">
<stop stop-color="#224A81"/>
<stop offset="1" stop-color="#2797D3"/>
</linearGradient>
</defs>
</svg>
