<svg width="144" height="144" viewBox="0 0 144 144" fill="none" xmlns="http://www.w3.org/2000/svg">
<path d="M72.0001 144C111.765 144 144 111.765 144 72.0001C144 32.2356 111.765 0 72.0001 0C32.2356 0 0 32.2356 0 72.0001C0 111.765 32.2356 144 72.0001 144Z" fill="#21D0C3"/>
<path d="M108.82 19.3965H17.1788V138.307H108.82V19.3965Z" fill="#FF5B62"/>
<path d="M20.4771 23.511H102.736L105.524 134.73H23.2654L20.4771 23.511Z" fill="#DCE3DB"/>
<path d="M102.734 23.5115H21.8499V131.997H102.734V23.5115Z" fill="white"/>
<path d="M52.3856 16.5059H74.5372C76.1321 16.5059 77.438 17.8109 77.438 19.4067V28.9278H49.4851V19.4067C49.4848 17.8117 50.7901 16.5059 52.3856 16.5059Z" fill="#666666"/>
<path d="M48.886 28.2092H78.0359C78.6529 28.2092 79.1527 28.7093 79.1527 29.3258C79.1527 29.9426 78.6527 30.4424 78.0359 30.4424H48.886C48.2689 30.4424 47.7692 29.9423 47.7692 29.3258C47.7689 28.709 48.2692 28.2092 48.886 28.2092Z" fill="#B0B0B0"/>
<path d="M60.5479 13.6153L58.1899 28.208H56.9763L59.3275 13.6519C58.6593 12.7243 58.3189 11.6128 58.3189 10.5219C58.3189 9.82268 58.4584 9.12828 58.7394 8.49321C59.024 7.8514 59.4535 7.2709 60.0298 6.80543C61.8644 5.32465 65.0462 5.32325 66.8816 6.80459C67.4599 7.27175 67.8907 7.8545 68.1762 8.49771C68.4589 9.13531 68.5989 9.83168 68.5989 10.534C68.5989 11.6213 68.2617 12.7288 67.5957 13.6522L69.9469 28.2088H68.7334L66.3754 13.6162C66.3399 13.4308 66.3945 13.2497 66.5081 13.1167C67.1044 12.3708 67.4059 11.4452 67.4059 10.534C67.4059 9.9934 67.2998 9.46128 67.0855 8.97809C66.8743 8.50221 66.5582 8.07359 66.1354 7.733C64.7404 6.60715 62.1704 6.6094 60.7759 7.73384C60.3546 8.07331 60.0405 8.50053 59.8304 8.97387C59.6169 9.45425 59.5123 9.98468 59.5123 10.5222C59.5123 11.443 59.8208 12.3798 60.4264 13.1307C60.5405 13.2725 60.5788 13.45 60.5479 13.6153Z" fill="#FEFEFE"/>
<path d="M53.6752 55.3497H95.841V56.416H53.6752V55.3497ZM53.6752 65.6353H79.9794V66.7015H53.6752V65.6353ZM53.6752 60.4927H95.841V61.5589H53.6752V60.4927Z" fill="#C2C2C4"/>
<path d="M53.6752 82.6766H95.841V83.7429H53.6752V82.6766ZM53.6752 92.962H79.9794V94.0282H53.6752V92.962ZM53.6752 87.8193H95.841V88.8855H53.6752V87.8193Z" fill="#C2C2C4"/>
<path d="M53.6752 110.003H95.841V111.07H53.6752V110.003ZM53.6752 120.289H79.9794V121.355H53.6752V120.289ZM53.6752 115.146H95.841V116.212H53.6752V115.146Z" fill="#C2C2C4"/>
<path d="M35.2821 53.0911C37.4733 53.0911 39.457 53.9793 40.8925 55.415L40.8917 55.4159C42.328 56.8531 43.217 58.8367 43.217 61.0254C43.217 63.2166 42.3288 65.2003 40.8931 66.6358C39.4576 68.0713 37.4739 68.9598 35.2827 68.9598C33.0937 68.9598 31.1101 68.0707 29.6732 66.6344L29.6717 66.6358C28.2362 65.2003 27.3478 63.2158 27.3478 61.0254C27.3478 58.8373 28.236 56.8536 29.6717 55.4173L29.6732 55.4159L29.6746 55.415C31.1109 53.9795 33.0946 53.0911 35.2827 53.0911H35.2821ZM40.0555 56.252C38.8337 55.0306 37.146 54.2751 35.2824 54.2751C33.4166 54.2751 31.7288 55.03 30.5093 56.2501L30.5062 56.2523C29.2867 57.4727 28.5313 59.1596 28.5313 61.0254C28.5313 62.889 29.2876 64.5768 30.509 65.7985V65.8016C31.7285 67.0211 33.4166 67.7765 35.2821 67.7765C37.1457 67.7765 38.8335 67.0203 40.0552 65.7988C41.2767 64.577 42.0321 62.8893 42.0321 61.0257C42.0321 59.1599 41.2772 57.4729 40.0572 56.2526H40.0555V56.252Z" fill="#15BDB2"/>
<path d="M35.2821 80.4186C37.4733 80.4186 39.457 81.3062 40.8925 82.7425L40.8917 82.7434C42.328 84.1806 43.217 86.1642 43.217 88.3529C43.217 90.5441 42.3288 92.5278 40.8931 93.9633C39.4576 95.3988 37.4739 96.2873 35.2827 96.2873C33.0937 96.2873 31.1101 95.3982 29.6732 93.9619L29.6717 93.9633C28.2362 92.5278 27.3478 90.5433 27.3478 88.3529C27.3478 86.1648 28.236 84.1811 29.6717 82.7448L29.6732 82.7434L29.6746 82.7425C31.1109 81.307 33.0946 80.4186 35.2827 80.4186H35.2821ZM40.0555 83.5798C38.8337 82.3584 37.146 81.6029 35.2824 81.6029C33.4166 81.6029 31.7288 82.3578 30.5093 83.5779L30.5062 83.5801C29.2867 84.8005 28.5313 86.4874 28.5313 88.3532C28.5313 90.2168 29.2876 91.9046 30.509 93.1263V93.1286C31.7285 94.3478 33.4166 95.1035 35.2821 95.1035C37.1457 95.1035 38.8335 94.3472 40.0552 93.1266C41.2767 91.9051 42.0321 90.2171 42.0321 88.3535C42.0321 86.4877 41.2772 84.8007 40.0572 83.5804H40.0555V83.5798Z" fill="#15BDB2"/>
<path d="M35.2821 107.746C37.4733 107.746 39.457 108.633 40.8925 110.07L40.8917 110.071C42.328 111.507 43.217 113.491 43.217 115.68C43.217 117.871 42.3288 119.855 40.8931 121.29C39.4576 122.726 37.4739 123.614 35.2827 123.614C33.0937 123.614 31.1101 122.725 29.6732 121.289L29.6717 121.29C28.2362 119.855 27.3478 117.871 27.3478 115.68C27.3478 113.492 28.236 111.508 29.6717 110.072L29.6732 110.071L29.6746 110.07C31.1109 108.634 33.0946 107.746 35.2827 107.746H35.2821ZM40.0555 110.907C38.8337 109.685 37.146 108.93 35.2824 108.93C33.4166 108.93 31.7288 109.685 30.5093 110.905L30.5062 110.907C29.2867 112.127 28.5313 113.814 28.5313 115.68C28.5313 117.544 29.2876 119.231 30.509 120.453V120.455C31.7285 121.676 33.4166 122.43 35.2821 122.43C37.1457 122.43 38.8335 121.674 40.0552 120.453C41.2767 119.232 42.0321 117.544 42.0321 115.68C42.0321 113.814 41.2772 112.127 40.0572 110.907H40.0555V110.907Z" fill="#15BDB2"/>
<path d="M30.9911 61.8529C30.6997 61.6301 30.6435 61.213 30.8665 60.9217C31.0893 60.6303 31.5069 60.574 31.7983 60.7971L34.0905 62.5537L37.7304 57.6243C37.9487 57.3292 38.3649 57.2679 38.66 57.4865C38.9544 57.7047 39.0163 58.1218 38.7972 58.416L34.7691 63.8728L34.7514 63.8964C34.5287 64.1878 34.111 64.2441 33.8196 64.021L30.9914 61.8537C30.9911 61.8537 30.9911 61.8529 30.9911 61.8529Z" fill="#FF5B62"/>
<path d="M31.4448 89.4498C31.1534 89.2271 31.0972 88.8094 31.3202 88.518C31.5429 88.2267 31.9606 88.1704 32.252 88.3934L34.5442 90.1501L38.1841 85.2198C38.4023 84.9254 38.8186 84.8635 39.1136 85.0826C39.4081 85.3008 39.47 85.7179 39.2509 86.0121L35.2228 91.4689L35.2051 91.4925C34.9823 91.7839 34.5647 91.8402 34.2733 91.6171L31.4448 89.4498Z" fill="#FF5B62"/>
<path d="M31.4448 116.777C31.1534 116.555 31.0972 116.138 31.3202 115.846C31.5429 115.555 31.9606 115.499 32.252 115.722L34.5442 117.479L38.1841 112.548C38.4023 112.254 38.8186 112.192 39.1136 112.411C39.4081 112.629 39.47 113.046 39.2509 113.34L35.2228 118.797L35.2051 118.821C34.9823 119.112 34.5647 119.169 34.2733 118.946L31.4451 116.778V116.777H31.4448Z" fill="#FF5B62"/>
<path d="M124.528 29.645H117.544V64.3676H124.528V29.645Z" fill="#0F7986"/>
<path d="M117.543 64.3663H124.528L122.347 71.2572H119.724L117.543 64.3663H117.543Z" fill="#FF5B62"/>
<path d="M119.193 6.80485H122.879C123.94 6.80485 124.808 7.67307 124.808 8.73422V29.5453C124.808 29.6007 124.764 29.644 124.71 29.644H117.363C117.309 29.644 117.265 29.5996 117.265 29.5453V8.73394C117.265 7.67307 118.133 6.80457 119.194 6.80457C119.194 6.80485 119.193 6.80485 119.193 6.80485Z" fill="#FF5B62"/>
<path d="M124.807 8.73404V29.5502C124.804 29.6011 124.765 29.6416 124.714 29.6439H124.709H123.82V7.05188C124.408 7.38319 124.807 8.0146 124.807 8.73404Z" fill="#ED4C54"/>
<path d="M120.365 71.2568H121.707V74.4659C121.707 74.8355 121.405 75.1364 121.037 75.1364H121.036C120.667 75.1364 120.365 74.8355 120.365 74.4659V71.2568H120.365Z" fill="#EEF3F7"/>
<path d="M117.263 8.84447H126.331H126.82V9.35916V31.2188V31.4187L126.688 31.5686L125.826 32.5482C125.412 32.9161 124.706 32.3528 125.112 31.8482L125.842 31.0182V9.87441H117.263V8.84363V8.84447Z" fill="#FAD24D"/>
<path d="M124.529 29.645H123.663V64.3676H124.529V29.645Z" fill="#076673"/>
<path d="M40.3284 43.671C39.9493 43.671 39.6416 43.3634 39.6416 42.9842C39.6416 42.6051 39.9493 42.2974 40.3284 42.2974H51.6656L54.2098 36.1316C54.3535 35.7817 54.7534 35.6152 55.1033 35.7583C55.2828 35.832 55.4138 35.9735 55.4802 36.1403L55.4824 36.1394L59.256 45.6665L62.4673 40.228C62.6599 39.9026 63.0804 39.7949 63.4064 39.9869C63.5096 40.0483 63.59 40.1315 63.6474 40.228L65.5093 43.0829L68.2084 40.2117C68.4672 39.9366 68.9017 39.9231 69.1776 40.1821C69.2302 40.2316 69.2718 40.2868 69.3059 40.3458L70.3999 42.2985H85.1029C85.482 42.2985 85.7897 42.6062 85.7897 42.9853C85.7897 43.3645 85.482 43.6722 85.1029 43.6722H69.9994V43.6708C69.759 43.6708 69.5264 43.5448 69.4012 43.3203L68.567 41.8314L65.9112 44.6554L65.9104 44.6546C65.8735 44.6931 65.8316 44.7297 65.7849 44.7592C65.4685 44.9651 65.0435 44.8742 64.8377 44.5578L63.0869 41.8727L59.7434 47.5348C59.6697 47.678 59.5462 47.7953 59.3856 47.8589C59.0329 47.9975 58.6339 47.824 58.4944 47.4724L54.8294 38.219L52.7763 43.194C52.6871 43.4691 52.4286 43.6694 52.1235 43.6694H40.3287L40.3284 43.671Z" fill="#15BDB2"/>
</svg>
