<svg width="120" height="120" viewBox="0 0 120 120" fill="none" xmlns="http://www.w3.org/2000/svg">
<path fill-rule="evenodd" clip-rule="evenodd" d="M9 5C9 2.23857 11.2386 0 14 0H37C39.2091 0 41 1.79086 41 4C41 6.20914 39.2091 8 37 8H17V26C17 28.2091 15.2091 30 13 30C10.7909 30 9 28.2091 9 26V5ZM61.2369 38.32C69.0572 38.32 75.3969 31.9804 75.3969 24.16C75.3969 16.3396 69.0572 10 61.2369 10C53.4165 10 47.0769 16.3396 47.0769 24.16C47.0769 31.9804 53.4165 38.32 61.2369 38.32ZM85 62.3201C85 55.9549 82.4714 49.8504 77.9706 45.3496C73.4697 40.8487 67.3652 38.3201 61 38.3201C54.6348 38.3201 48.5303 40.8487 44.0294 45.3496C39.5286 49.8504 37 55.9549 37 62.3201L61 62.3201H85ZM85 62.3203V101.68H37V62.3203H85ZM106 0C108.761 0 111 2.23857 111 5V26C111 28.2091 109.209 30 107 30C104.791 30 103 28.2091 103 26V8H83C80.7909 8 79 6.20914 79 4C79 1.79086 80.7909 0 83 0H106ZM9 115C9 117.761 11.2386 120 14 120H37C39.2091 120 41 118.209 41 116C41 113.791 39.2091 112 37 112H17V94C17 91.7909 15.2091 90 13 90C10.7909 90 9 91.7909 9 94V115ZM106 120C108.761 120 111 117.761 111 115V94C111 91.7909 109.209 90 107 90C104.791 90 103 91.7909 103 94V112H83C80.7909 112 79 113.791 79 116C79 118.209 80.7909 120 83 120H106Z" fill="url(#paint0_linear_169_139)"/>
<defs>
<linearGradient id="paint0_linear_169_139" x1="82.5" y1="5.5" x2="58.3056" y2="120.13" gradientUnits="userSpaceOnUse">
<stop stop-color="#224A81"/>
<stop offset="1" stop-color="#2794D0"/>
</linearGradient>
</defs>
</svg>
