<svg width="144" height="144" viewBox="0 0 144 144" fill="none" xmlns="http://www.w3.org/2000/svg">
<path d="M72 144C111.765 144 144 111.765 144 72C144 32.2355 111.765 0 72 0C32.2355 0 0 32.2355 0 72C0 111.765 32.2355 144 72 144Z" fill="#FAD24D"/>
<path d="M49.675 93.0041C44.0997 78.9382 32.3888 66.2091 47.1252 40.5687C53.1942 30.0089 62.4654 23.0448 72.0431 25.4026C81.6193 23.0448 90.8908 30.0089 96.9598 40.5687C111.696 66.2088 99.9852 78.9382 94.41 93.0041L72.0433 93.0601L49.6767 93.0041H49.675Z" fill="#666666"/>
<path d="M34.3709 114.992C33.7381 116.013 32.2498 123.973 30.5428 130.871C42.2637 139.14 56.5649 144 72.0013 144C87.4378 144 101.737 139.14 113.46 130.869C111.753 123.971 110.263 116.014 109.63 114.992C98.89 97.6503 82.3353 105.221 81.2061 85.376C81.2061 85.376 75.8801 89.3495 71.8126 89.3874C67.7452 89.424 62.791 85.628 62.791 85.628C61.6648 105.456 45.1048 97.6632 34.3721 114.994L34.3709 114.992Z" fill="#FED298"/>
<path d="M81.4933 88.1784C81.3609 87.3079 81.2622 86.3778 81.2051 85.3749C81.2051 85.3749 75.879 89.3484 71.8116 89.3863C67.7442 89.4229 62.7899 85.6269 62.7899 85.6269C62.7326 86.6478 62.6313 87.5909 62.4938 88.4717C62.5976 88.5547 62.7016 88.6379 62.8068 88.7198L62.8054 88.7341C63.1184 89.0069 67.8794 93.1003 71.8113 93.06C75.7435 93.1017 80.5045 89.0069 80.8172 88.7341L80.8158 88.7198C81.0478 88.5432 81.2714 88.3612 81.4933 88.1784Z" fill="#F0BA7D"/>
<path d="M62.8067 85.6398C63.1198 85.876 67.8808 89.4226 71.8127 89.3863C75.7448 89.4215 80.5058 85.8749 80.8186 85.6398C86.7617 82.1753 91.6382 71.9598 90.5369 60.8881C89.6352 51.8195 79.8249 65.1164 72.9922 46.4054C63.3223 66.6636 54.1369 54.6803 53.0884 62.3573C51.935 70.8151 56.6842 81.4596 62.8067 85.6398Z" fill="#FED298"/>
<path d="M55.0035 99.824C49.1515 102.951 38.4449 103.046 34.371 109.594C33.7202 110.64 32.1691 122.47 30.4065 130.776C42.1535 139.104 56.5054 144 72 144C87.4935 144 101.844 139.105 113.59 130.778C111.797 122.487 110.083 110.74 109.629 109.594C106.924 102.771 94.4018 102.487 88.5431 99.3406C79.4343 132.389 65.8583 134.642 55.0049 99.8277L55.0024 99.8252L55.0035 99.824Z" fill="#21D0C3"/>
<path d="M58.9058 96.5402C58.5253 106.822 60.2724 121.388 71.8102 125.111C60.9488 125.565 53.9004 109.915 45.8724 105.817L58.9067 96.5416L58.9058 96.5402Z" fill="white"/>
<path d="M85.3616 96.5402C85.7605 106.822 83.925 121.388 71.8102 125.111C83.2157 125.565 90.6174 109.915 99.047 105.817L85.3616 96.5416V96.5402Z" fill="white"/>
<path d="M54.1137 15.6223H90.4683C92.7155 15.6223 94.7264 17.3019 94.5538 19.3402L93.1405 35.8571C88.5302 31.3273 56.0377 30.9443 51.4418 35.8571L50.0285 19.3402C49.8541 17.3005 51.8665 15.6223 54.1137 15.6223Z" fill="white"/>
<path d="M72.2919 31.1485C76.1065 31.1485 79.1989 28.0561 79.1989 24.2415C79.1989 20.4269 76.1065 17.3346 72.2919 17.3346C68.4774 17.3346 65.385 20.4269 65.385 24.2415C65.385 28.0561 68.4774 31.1485 72.2919 31.1485Z" fill="#FF5B62"/>
<path d="M70.9762 19.3995H73.6056V22.9264H77.1322V25.5558H73.6056V29.0827H70.9762V25.5561H67.4493V22.9267H70.9762V19.3995Z" fill="white"/>
<path d="M124.012 56.5245C123.079 56.9636 122.146 57.4015 121.212 57.838C119.445 58.664 117.678 59.4892 115.902 60.2944C115.314 60.5608 114.722 60.8282 114.127 61.0805C113.08 61.5235 111.778 61.9482 111.013 60.383C110.774 59.8945 110.754 59.3216 110.955 58.8165C111.171 58.2762 112.06 57.1846 112.422 56.7017C112.984 55.9497 113.549 55.1987 114.116 54.4492C107.044 51.0095 102.428 43.7853 102.428 35.7537C102.428 24.2742 111.735 14.9679 123.214 14.9679C134.694 14.9679 144 24.2736 144 35.7534C144 46.9432 135.143 56.1027 124.012 56.5237V56.5245Z" fill="white"/>
<path d="M123.214 17.5421C133.314 17.5421 141.502 25.7299 141.502 35.8298C141.502 45.8181 133.492 53.9356 123.545 54.1136C119.157 56.1805 112.993 59.0591 113.062 58.8876C113.121 58.7421 115.343 55.7944 117.345 53.1551C110.125 50.7091 104.928 43.8772 104.928 35.8298C104.928 25.7299 113.116 17.5421 123.216 17.5421C123.216 17.5421 123.214 17.5421 123.214 17.5421Z" fill="#FF5B62"/>
<path d="M124.982 32.9277V43.9653C124.982 44.7292 124.8 45.3074 124.438 45.6981C124.076 46.089 123.617 46.2854 123.058 46.2854C122.5 46.2854 122.047 46.0851 121.697 45.6838C121.349 45.2824 121.172 44.7095 121.172 43.965V33.0416C121.172 32.2828 121.349 31.7138 121.697 31.3321C122.045 30.9502 122.5 30.7592 123.058 30.7592C123.617 30.7592 124.076 30.9502 124.438 31.3321C124.8 31.7141 124.982 32.2482 124.982 32.926V32.9277ZM123.096 28.984C122.566 28.984 122.113 28.8217 121.736 28.4969C121.359 28.172 121.172 27.7096 121.172 27.1123C121.172 26.577 121.363 26.1341 121.75 25.7845C122.137 25.4363 122.586 25.2585 123.098 25.2585C123.594 25.2585 124.029 25.4158 124.411 25.7316C124.793 26.0511 124.984 26.5098 124.984 27.1111C124.984 27.6984 124.797 28.1568 124.425 28.4867C124.053 28.8155 123.614 28.9831 123.098 28.9831L123.096 28.984Z" fill="#FEFEFE"/>
</svg>
