<svg width="120" height="120" viewBox="0 0 120 120" fill="none" xmlns="http://www.w3.org/2000/svg">
<path d="M90.6047 120C97.0451 120 102.246 114.8 102.246 108.359V32.1544C102.246 25.714 97.0451 20.5137 90.6047 20.5137H85.4044C84.8844 16.5933 81.5641 13.5533 77.484 13.5533H75.9639C75.2439 6.95284 70.4836 1.51254 64.083 0.27246C59.6428 -0.567674 55.1625 0.552478 51.7223 3.39254C48.6421 5.95274 46.722 9.59285 46.3619 13.5533H42.7616C38.6815 13.5533 35.3612 16.5933 34.8412 20.5137H29.6409C23.2005 20.5137 18 25.714 18 32.1543V108.359C18 114.8 23.2005 120 29.6409 120H90.6047ZM26.0005 108.359V32.1544C26.0005 30.1542 27.6407 28.5142 29.6409 28.5142H34.8411C35.3612 32.4344 38.6815 35.4746 42.7616 35.4746H77.484C81.5641 35.4746 84.8844 32.4344 85.4044 28.5142H90.6047C92.6049 28.5142 94.2451 30.1542 94.2451 32.1544V108.359C94.2451 110.359 92.6049 111.999 90.6047 111.999H29.6409C27.6407 111.999 26.0005 110.359 26.0005 108.359Z" fill="url(#paint0_linear_169_140)"/>
<path d="M40.1253 82.3175H48.0457V90.2782C48.0457 92.4783 49.8458 94.2784 52.0459 94.2784H68.2071C70.4072 94.2784 72.2074 92.4783 72.2074 90.2782V82.3175H80.1278C82.3679 82.3175 84.128 80.5176 84.128 78.3172V62.1963C84.128 59.9962 82.3679 58.1961 80.1278 58.1961H72.2074V50.2356C72.2074 48.0355 70.4072 46.2354 68.2071 46.2354H52.0459C49.8458 46.2354 48.0457 48.0355 48.0457 50.2356V58.1961H40.1253C37.8851 58.1961 36.125 59.9962 36.125 62.1963V78.3172C36.125 80.5175 37.8851 82.3175 40.1253 82.3175ZM44.1255 66.1966H52.0459C54.2861 66.1966 56.0462 64.3964 56.0462 62.1963V54.2359H64.2069V62.1963C64.2069 64.3964 65.967 66.1966 68.2071 66.1966H76.1275V74.317H68.2071C65.967 74.317 64.2069 76.1171 64.2069 78.3172V86.2779H56.0462V78.3172C56.0462 76.1171 54.2861 74.317 52.0459 74.317H44.1255V66.1966Z" fill="url(#paint1_linear_169_140)"/>
<defs>
<linearGradient id="paint0_linear_169_140" x1="72.5833" y1="23.75" x2="13" y2="120" gradientUnits="userSpaceOnUse">
<stop stop-color="#224A81"/>
<stop offset="1" stop-color="#2797D3"/>
</linearGradient>
<linearGradient id="paint1_linear_169_140" x1="72.5833" y1="23.75" x2="13" y2="120" gradientUnits="userSpaceOnUse">
<stop stop-color="#224A81"/>
<stop offset="1" stop-color="#2797D3"/>
</linearGradient>
</defs>
</svg>
