<svg width="120" height="120" viewBox="0 0 120 120" fill="none" xmlns="http://www.w3.org/2000/svg">
<path fill-rule="evenodd" clip-rule="evenodd" d="M102.246 108.359C102.246 114.8 97.0451 120 90.6047 120H29.6409C23.2005 120 18 114.8 18 108.359V32.1543C18 25.714 23.2005 20.5137 29.6409 20.5137H34.8412C35.3612 16.5933 38.6815 13.5533 42.7616 13.5533H46.3619C46.722 9.59285 48.6421 5.95274 51.7223 3.39254C55.1625 0.552478 59.6428 -0.567674 64.083 0.27246C70.4836 1.51254 75.2439 6.95284 75.9639 13.5533H77.484C81.5641 13.5533 84.8844 16.5933 85.4044 20.5137H90.6047C97.0451 20.5137 102.246 25.714 102.246 32.1544V108.359ZM26.0005 32.1544V108.359C26.0005 110.359 27.6407 111.999 29.6409 111.999H90.6047C92.6049 111.999 94.2451 110.359 94.2451 108.359V32.1544C94.2451 30.1542 92.6049 28.5142 90.6047 28.5142H85.4044C84.8844 32.4344 81.5641 35.4746 77.484 35.4746H42.7616C38.6815 35.4746 35.3612 32.4344 34.8411 28.5142H29.6409C27.6407 28.5142 26.0005 30.1542 26.0005 32.1544ZM60.0807 59.158C61.9061 56.007 65.3941 52.5 70.8229 52.5C77.7125 52.5 82.9974 57.7094 82.9974 64.6185C82.9974 72.0403 76.4994 77.1167 66.7653 84.7211L66.4891 84.9369C62.7988 87.8175 61.6031 88.7787 60.7846 89.4366C60.5349 89.6373 60.3203 89.8098 60.0807 90C59.7659 89.7501 59.5105 89.5449 59.2282 89.318C58.3842 88.6398 57.3002 87.7687 53.6724 84.9369L53.3961 84.7211C43.662 77.1166 37.1641 72.0403 37.1641 64.6185C37.1641 57.7094 42.4489 52.5 49.3385 52.5C54.7674 52.5 58.2554 56.007 60.0807 59.158Z" fill="url(#paint0_linear_169_141)"/>
<defs>
<linearGradient id="paint0_linear_169_141" x1="77.1667" y1="41.6667" x2="14.25" y2="115.833" gradientUnits="userSpaceOnUse">
<stop stop-color="#224A81"/>
<stop offset="1" stop-color="#2797D3"/>
</linearGradient>
</defs>
</svg>
