<svg width="52" height="51" viewBox="0 0 52 51" fill="none" xmlns="http://www.w3.org/2000/svg">
<path d="M25.5231 2.51114C25.6699 2.04464 26.3301 2.04463 26.4769 2.51114L31.0886 17.1623C31.5474 18.62 32.899 19.6115 34.4271 19.6115H49.4826C49.9631 19.6115 50.167 20.2232 49.7826 20.5115L37.4944 29.7274C36.3064 30.6183 35.81 32.1619 36.2558 33.5783L40.9235 48.4075C41.0694 48.8709 40.5353 49.2491 40.1466 48.9576L28.1 39.9229C26.8555 38.9896 25.1445 38.9896 23.9 39.9229L11.8534 48.9576C11.4647 49.2491 10.9306 48.8709 11.0765 48.4075L15.7442 33.5783C16.19 32.1619 15.6936 30.6183 14.5056 29.7274L2.21739 20.5115C1.83297 20.2232 2.03688 19.6115 2.51738 19.6115H17.5729C19.101 19.6115 20.4526 18.62 20.9114 17.1623L25.5231 2.51114Z" fill="#FFA000" stroke="#0F3A62" stroke-width="3"/>
</svg>
