<svg width="51" height="52" viewBox="0 0 51 52" fill="none" xmlns="http://www.w3.org/2000/svg">
<path d="M25.0217 2.71131C25.0669 2.56311 25.1369 2.48871 25.2012 2.44418C25.2757 2.39258 25.38 2.35714 25.5 2.35714C25.62 2.35714 25.7243 2.39258 25.7988 2.44419C25.8631 2.48871 25.9331 2.56311 25.9783 2.71131L30.4809 17.4778C30.93 18.9506 32.289 19.9569 33.8287 19.9569H48.6568C49.1334 19.9569 49.3398 20.5605 48.9629 20.8523L36.7527 30.3052C35.6032 31.1952 35.1235 32.7031 35.5475 34.0936L40.1591 49.2173C40.3013 49.6836 39.7602 50.057 39.3747 49.7585L27.6426 40.6757C26.3811 39.6991 24.6189 39.6991 23.3574 40.6757L11.6253 49.7585C11.2398 50.0569 10.6987 49.6836 10.8409 49.2173L15.4525 34.0936C15.8765 32.703 15.3968 31.1952 14.2473 30.3052L2.03713 20.8523C1.66023 20.5605 1.86657 19.9569 2.34321 19.9569H17.1713C18.7111 19.9569 20.07 18.9506 20.5191 17.4778L25.0217 2.71131Z" fill="white" stroke="#0F3A62" stroke-width="3"/>
</svg>
