<svg width="144" height="144" viewBox="0 0 144 144" fill="none" xmlns="http://www.w3.org/2000/svg">
<path d="M72 144C111.765 144 144 111.765 144 72C144 32.2355 111.765 0 72 0C32.2355 0 0 32.2355 0 72C0 111.765 32.2355 144 72 144Z" fill="#0F7986"/>
<path d="M19.2218 18.0293H42.3844V104.732C42.3844 111.102 37.1731 116.313 30.8031 116.313C24.433 116.313 19.2218 111.102 19.2218 104.732V18.0293Z" fill="#EEF3F7"/>
<path d="M30.8042 18.0293H42.3855V104.732C42.3855 111.101 37.1753 116.312 30.8042 116.312C30.8042 116.312 30.8042 18.0293 30.8042 18.0293Z" fill="#DCE3DB"/>
<path d="M21.6158 46.5122V104.782C21.6158 109.868 25.7605 114.045 30.8045 114.045C35.8484 114.045 39.9918 109.868 39.9918 104.782V46.5122H21.6158Z" fill="#51BBB2"/>
<path d="M30.8042 114.044C35.8478 114.044 39.9915 109.867 39.9915 104.782V46.5122H30.8042C30.8042 46.5122 30.8042 114.044 30.8042 114.044Z" fill="#15BDB2"/>
<path d="M17.0705 14.8208H44.5365C46.33 14.8208 47.7838 16.2746 47.7838 18.0681C47.7838 19.8616 46.33 21.3154 44.5365 21.3154H17.0705C15.2769 21.3154 13.8232 19.8616 13.8232 18.0681C13.8232 16.2749 15.2772 14.8208 17.0705 14.8208Z" fill="#EEF3F7"/>
<path d="M47.7838 18.0698C47.7838 19.856 46.3224 21.3157 44.5379 21.3157H17.0705C15.2842 21.3157 13.8246 19.8544 13.8246 18.0698H47.7852H47.7838Z" fill="#CCD8DB"/>
<path d="M60.4187 18.0293H83.5825V104.732C83.5825 111.102 78.3712 116.313 72.0011 116.313C65.6311 116.313 60.4198 111.102 60.4198 104.732V18.0293H60.4187Z" fill="#EEF3F7"/>
<path d="M72 18.0293H83.5813V104.732C83.5813 111.101 78.37 116.312 72 116.312V18.0293Z" fill="#DCE3DB"/>
<path d="M62.8127 46.5122V104.782C62.8127 109.868 66.9575 114.045 72 114.045C77.0437 114.045 81.1873 109.868 81.1873 104.782V46.5122H62.8127Z" fill="#FF5B62"/>
<path d="M72 114.044C77.0437 114.044 81.1873 109.867 81.1873 104.782V46.5122H72V114.044Z" fill="#ED4C54"/>
<path d="M58.2663 14.8208H85.7323C87.5259 14.8208 88.9796 16.2746 88.9796 18.0681C88.9796 19.8616 87.5259 21.3154 85.7323 21.3154H58.2663C56.4728 21.3154 55.019 19.8616 55.019 18.0681C55.019 16.2749 56.473 14.8208 58.2663 14.8208Z" fill="#EEF3F7"/>
<path d="M88.981 18.0698C88.981 19.856 87.5197 21.3157 85.7337 21.3157H58.2666C56.4803 21.3157 55.0207 19.8544 55.0207 18.0698H88.981Z" fill="#CCD8DB"/>
<path d="M101.614 18.0293H124.777V104.732C124.777 111.102 119.566 116.313 113.196 116.313C106.826 116.313 101.614 111.102 101.614 104.732V18.0293Z" fill="#EEF3F7"/>
<path d="M113.196 18.0293H124.777V104.732C124.777 111.101 119.567 116.312 113.196 116.312V18.0293Z" fill="#DCE3DB"/>
<path d="M104.009 46.5122V104.782C104.009 109.868 108.153 114.045 113.197 114.045C118.241 114.045 122.385 109.868 122.385 104.782V46.5122H104.009Z" fill="#FAD24D"/>
<path d="M113.196 114.044C118.239 114.044 122.383 109.867 122.383 104.782V46.5122H113.196V114.044Z" fill="#EDB937"/>
<path d="M99.4632 14.8208H126.929C128.723 14.8208 130.177 16.2746 130.177 18.0681C130.177 19.8616 128.723 21.3154 126.929 21.3154H99.4632C97.6697 21.3154 96.2159 19.8616 96.2159 18.0681C96.2162 16.2749 97.67 14.8208 99.4632 14.8208Z" fill="#EEF3F7"/>
<path d="M130.177 18.0698C130.177 19.856 128.715 21.3157 126.931 21.3157H99.4638C97.6775 21.3157 96.2179 19.8544 96.2179 18.0698H130.179H130.177Z" fill="#CCD8DB"/>
</svg>
