<svg width="144" height="144" viewBox="0 0 144 144" fill="none" xmlns="http://www.w3.org/2000/svg">
<path fill-rule="evenodd" clip-rule="evenodd" d="M15 0C9.47715 0 5 4.47715 5 10V13C5 17.8379 8.43552 21.8734 13 22.8V75V93V124C13 135.046 21.9543 144 33 144C44.0457 144 53 135.046 53 124V93V75V22.8C57.5645 21.8734 61 17.8379 61 13V10C61 4.47715 56.5229 0 51 0H15ZM44 23H22V38H27.5C29.9853 38 32 40.0147 32 42.5C32 44.9853 29.9853 47 27.5 47H22V54H27.5C29.9853 54 32 56.0147 32 58.5C32 60.9853 29.9853 63 27.5 63H22V75H44V23ZM93 0C87.4771 0 83 4.47715 83 10V13C83 17.8379 86.4355 21.8734 91 22.8V75V93V124C91 135.046 99.9543 144 111 144C122.046 144 131 135.046 131 124V93V75V22.8C135.564 21.8734 139 17.8379 139 13V10C139 4.47715 134.523 0 129 0H93ZM122 23H100V38H105.5C107.985 38 110 40.0147 110 42.5C110 44.9853 107.985 47 105.5 47H100V54H105.5C107.985 54 110 56.0147 110 58.5C110 60.9853 107.985 63 105.5 63H100V75H122V23Z" fill="url(#paint0_linear_169_188)"/>
<defs>
<linearGradient id="paint0_linear_169_188" x1="108" y1="14.5" x2="25.5" y2="123.5" gradientUnits="userSpaceOnUse">
<stop offset="0.0635656" stop-color="#224B82"/>
<stop offset="1" stop-color="#2797D3"/>
</linearGradient>
</defs>
</svg>
