<svg width="144" height="145" viewBox="0 0 144 145" fill="none" xmlns="http://www.w3.org/2000/svg">
<path d="M72 144C111.765 144 144 111.765 144 72C144 32.2355 111.765 0 72 0C32.2355 0 0 32.2355 0 72C0 111.765 32.2355 144 72 144Z" fill="#21D0C3"/>
<path d="M125.555 120.12C125.29 118.193 124.963 116.212 124.537 114.23C122.454 104.547 119.477 99.2379 119.477 97.6755C119.477 96.114 118.584 92.366 117.096 87.0566C115.608 81.7471 116.798 78.6229 115.31 61.4446C113.821 44.2663 111.44 43.0172 107.272 41.4552C103.105 39.8937 99.8305 41.4552 95.068 40.8305C90.3047 40.2058 82.8636 39.269 81.0771 37.7069C79.7451 36.5428 79.7375 30.8666 79.8202 28.0524C81.6239 26.6678 83.0175 25.1918 83.1615 24.589C83.4591 23.3403 84.0545 17.405 84.0545 17.405L86.7334 13.3451C86.7334 13.3451 88.8169 8.66032 87.6264 8.03453C86.4355 7.41071 85.0689 10.4679 85.0689 10.4679C85.0689 10.4679 86.7331 3.66275 86.4355 1.47629L86.4313 1.44648C81.7687 0.49866 76.943 0 72.0008 0C67.8256 0 63.7354 0.35944 59.7548 1.04176C59.7174 1.18238 59.6806 1.32695 59.6451 1.47657C59.0492 3.97522 60.2406 9.9102 60.2406 9.9102C60.2406 9.9102 58.157 8.34869 57.8595 9.9102C57.5611 11.4717 59.3479 15.2197 60.5384 15.5327C62.0268 16.469 62.6219 19.5926 62.6219 21.1547C62.6219 22.7162 65.003 27.0894 65.003 27.0894C65.003 27.0894 65.5512 27.5304 66.4107 28.1151C66.4906 30.949 66.4748 36.5529 65.1518 37.7089C63.3658 39.271 55.9236 40.2081 51.1615 40.8325C46.3982 41.4571 43.1247 39.8962 38.9562 41.4571C34.7889 43.0198 32.4078 44.2685 30.9189 61.4466C29.4305 78.6249 30.6213 81.749 29.1329 87.0585C27.6446 92.368 26.7519 96.1165 26.7519 97.6775C26.7519 99.2396 23.7754 104.549 21.6916 114.232C21.1085 116.94 20.7125 119.648 20.4048 122.213C23.3614 125.251 26.5831 128.029 30.0341 130.509C30.3665 129.352 30.8371 128.117 31.5149 126.804C34.4177 121.181 36.65 108.766 38.2126 103.847C39.7752 98.9277 42.4542 93.3057 42.4542 92.1343C42.4542 90.9634 43.1238 72.4573 45.1331 68.7094C47.1429 64.9614 48.2589 65.4291 48.2589 65.4291C48.2589 65.4291 49.3749 70.8171 48.7056 76.4393C48.0359 82.0612 47.8126 82.5301 49.3752 90.26C50.9379 97.9902 53.3935 101.036 53.1704 105.252C52.9474 109.469 51.8314 107.595 49.3752 113.217C47.0046 118.643 43.6652 120.944 43.7027 138.224C52.3891 141.943 61.9545 144.002 72.0011 144.002C82.914 144.002 93.2576 141.571 102.524 137.225C102.433 120.853 99.1768 118.536 96.8534 113.216C94.3978 107.594 93.2815 109.468 93.0582 105.252C92.8352 101.036 95.2911 97.9905 96.8534 90.2595C98.4166 82.5298 98.1936 82.061 97.5236 76.4387C96.8534 70.8168 97.9703 65.4285 97.9703 65.4285C97.9703 65.4285 99.0863 64.9608 101.096 68.7088C103.104 72.4562 103.774 90.9623 103.774 92.1337C103.774 93.3051 106.453 98.9271 108.016 103.846C109.579 108.766 111.811 121.181 114.714 126.803C115.138 127.625 115.48 128.416 115.759 129.176C119.298 126.464 122.578 123.432 125.555 120.121L125.555 120.12Z" fill="#0F7986"/>
<path d="M7.16096 40.6697H136.841C141.426 50.142 143.998 60.7708 143.998 72.0006C143.998 79.1985 142.937 86.1474 140.971 92.705H3.02964C1.06397 86.1474 0.00280762 79.1987 0.00280762 72.0004C0.00280762 60.7705 2.57514 50.1417 7.16011 40.6694L7.16096 40.6697Z" fill="#EEF3F7"/>
<path d="M118.592 92.7042C118.204 91.1061 117.698 89.2096 117.095 87.0566C115.606 81.7472 116.797 78.623 115.309 61.4447C113.821 44.2664 111.439 43.0173 107.272 41.4553C103.104 39.8937 99.8296 41.4553 95.0672 40.8306L93.8381 40.6694H52.3903L51.1612 40.8306C46.3979 41.4553 43.1244 39.8943 38.956 41.4553C34.7886 43.0179 32.4076 44.2667 30.9186 61.4447C29.4302 78.623 30.6211 81.7472 29.1327 87.0566C28.5291 89.2096 28.024 91.1061 27.6356 92.7042H42.3526C42.4179 92.4606 42.453 92.2663 42.453 92.1318C42.453 90.961 43.1227 72.4549 45.132 68.7069C47.1418 64.9589 48.2578 65.4267 48.2578 65.4267C48.2578 65.4267 49.3738 70.8146 48.7044 76.4368C48.0348 82.0588 47.8115 82.5276 49.3741 90.2576C49.5502 91.13 49.7386 91.9423 49.9321 92.7039H96.2937C96.4878 91.9423 96.6751 91.13 96.8517 90.2576C98.4149 82.5279 98.1919 82.0591 97.5219 76.4368C96.8517 70.8149 97.9686 65.4267 97.9686 65.4267C97.9686 65.4267 99.0849 64.9589 101.094 68.7069C103.102 72.4543 103.773 90.9604 103.773 92.1318C103.773 92.2663 103.808 92.4601 103.873 92.7042H118.59H118.592Z" fill="#15BDB2"/>
<path d="M7.16095 40.6694H136.841C137.057 41.1161 137.269 41.5655 137.476 42.0172H6.52588C6.73316 41.5655 6.94438 41.1158 7.16095 40.6694ZM141.361 91.357C141.235 91.8078 141.105 92.2567 140.971 92.7039H3.02963C2.89576 92.2567 2.7661 91.8078 2.64038 91.357H141.36H141.361Z" fill="#FEFEFE"/>
<path d="M91.6633 78.0881C91.9136 77.1121 91.9145 76.1755 91.8506 75.4772C91.888 75.3962 91.9254 75.3166 91.9623 75.2322C92.9506 72.9583 91.9896 69.5129 91.8321 68.9853C92.2618 67.6074 92.3302 66.1024 92.2686 64.7446C92.1774 62.7249 91.5443 61.6384 91.0465 61.0866C91.2932 59.6291 91.1092 58.1565 90.5838 56.5693C90.3619 55.8991 90.1206 55.4938 89.9018 55.2472C89.91 54.7752 89.8813 54.2487 89.8183 53.6392C89.6551 52.0786 89.0153 51.0466 88.4511 50.4195C88.5408 50.1008 88.5931 49.7844 88.5931 49.4744C88.5931 47.8924 86.6244 46.728 85.5688 46.2158C85.6605 45.9548 85.701 45.7464 85.6822 45.6187C85.5289 44.5393 84.457 44.3854 83.2313 44.5393C83.5376 49.6294 72.5088 52.4054 72.5088 52.4054C72.5088 52.4054 73.1222 54.1019 72.9684 54.5646C79.2271 53.6196 82.9239 50.3162 84.5999 47.9621C85.3922 48.4403 86.6612 49.34 86.4486 50.0915C84.151 55.3358 72.6621 56.2611 72.6621 56.2611C72.6621 56.2611 73.2755 58.4203 72.6621 58.5747C74.9596 58.4203 80.4745 57.4952 83.3846 55.7984C85.1351 54.7778 86.6601 53.4786 87.6003 52.1348C87.8562 52.7907 88.0618 53.7672 87.8273 55.0278C87.3671 57.4952 82.4657 60.4259 81.3936 60.5803C80.3212 60.7347 73.2752 60.5803 73.2752 60.5803L73.1219 62.7403C73.1219 62.7403 78.7895 63.5118 81.0876 62.8947C83.3852 62.2777 85.989 61.0438 87.8276 59.3479C88.2275 58.9783 88.5588 58.6385 88.8347 58.3021C88.7208 59.633 88.4255 61.4536 87.6746 63.0492C86.2961 65.9798 83.2322 65.9798 80.475 66.1342C77.7179 66.2886 73.1222 63.6662 73.1222 63.6662L73.2755 65.671C73.2755 65.671 75.573 66.7505 76.9515 67.5219C78.3299 68.2934 82.1595 68.7558 85.2231 67.6763C87.5893 66.8424 89.404 64.814 90.3203 63.151C92.1968 67.4024 88.6708 70.337 86.295 71.5326C83.8442 72.7665 73.5815 68.7564 73.5815 68.7564L73.1219 70.2985C73.1219 70.2985 76.0323 71.2244 77.1042 71.6862C78.1766 72.1488 81.393 74.308 86.6013 73.3827C88.4702 73.0503 89.7404 72.2777 90.603 71.2708C92.079 73.9421 89.3857 75.923 87.3674 77.0843C85.2232 78.3181 80.4747 76.7755 78.4829 75.2333C76.4916 73.6907 73.4282 72.1483 73.4282 72.1483L72.9681 74.4619C72.9681 74.4619 73.7891 74.9096 74.7664 75.4297C75.2724 76.1255 75.9404 77.2303 76.7613 78.4889C77.8706 84.3676 82.0169 89.1146 86.6007 89.1146C91.3491 89.1146 91.6554 84.796 91.9617 82.7906C92.151 81.5554 91.9325 80.263 91.7373 79.4513C91.7342 78.9507 91.7032 78.4844 91.6633 78.0881ZM90.909 80.0197C90.7371 82.2849 89.2012 84.4604 86.2947 85.2584C84.7183 85.6358 82.6294 83.6442 80.9059 81.514C82.1392 82.6607 83.7291 83.4482 85.9884 83.5618C88.4233 83.6839 89.9848 81.8583 90.909 80.0197ZM86.2945 79.3976C87.942 79.2401 89.1053 78.7966 89.9941 78.0723C89.5308 79.2333 88.5777 80.7167 86.6007 81.712C84.2441 82.7996 81.1984 79.8965 79.3126 77.6701C81.1408 78.4962 83.9896 79.6192 86.2945 79.3976ZM86.9073 87.7264C83.8056 88.3724 80.6311 84.2079 78.9965 81.6341C80.6739 83.7511 82.7116 85.7224 85.0693 86.4922C87.8703 87.4071 89.6521 85.0275 90.8738 83.0643C90.5453 84.7735 89.6023 87.071 86.9073 87.7264Z" fill="#EEF3F7"/>
<path d="M53.533 79.451C53.3375 80.2622 53.1193 81.5551 53.308 82.7904C53.6143 84.7952 53.9209 89.1144 58.6695 89.1144C63.2534 89.1144 67.3997 84.3679 68.5089 78.4886C69.3299 77.2297 69.9979 76.1247 70.5039 75.4294C71.4812 74.9094 72.3022 74.4616 72.3022 74.4616L71.8426 72.148C71.8426 72.148 68.7792 73.6901 66.7879 75.2331C64.7967 76.7752 60.048 78.3182 57.9034 77.084C55.8849 75.9224 53.1924 73.9418 54.6679 71.2705C55.5305 72.2768 56.8003 73.0503 58.6695 73.3824C63.8775 74.3078 67.0945 72.1486 68.1666 71.6859C69.2391 71.2232 72.1489 70.2982 72.1489 70.2982L71.6893 68.7561C71.6893 68.7561 61.4264 72.7665 58.9758 71.5323C56.6004 70.3367 53.074 67.4024 54.9505 63.1507C55.8671 64.8138 57.6809 66.8427 60.0477 67.6761C63.1111 68.7555 66.9409 68.2931 68.3194 67.5217C69.6978 66.7502 71.9953 65.6707 71.9953 65.6707L72.1486 63.666C72.1486 63.666 67.5535 66.2878 64.7958 66.134C62.0387 65.9796 58.9755 65.9795 57.5963 63.0489C56.8459 61.4533 56.5506 59.6328 56.4361 58.3019C56.712 58.638 57.0433 58.9777 57.4433 59.3476C59.2813 61.0441 61.8857 62.2782 64.1832 62.8945C66.4808 63.5115 72.1486 62.7401 72.1486 62.7401L71.9953 60.58C71.9953 60.58 64.9488 60.7344 63.877 60.58C62.8048 60.4256 57.9034 57.495 57.4433 55.0275C57.2084 53.7675 57.4135 52.791 57.6702 52.1345C58.6108 53.4784 60.1352 54.7783 61.886 55.7982C64.7964 57.4947 70.3109 58.42 72.6085 58.5744C71.9951 58.42 72.6085 56.2608 72.6085 56.2608C72.6085 56.2608 61.1195 55.3349 58.822 50.0912C58.6085 49.3403 59.8781 48.4406 60.6704 47.9619C62.3472 50.316 66.0437 53.6193 72.3019 54.5643C72.1486 54.1016 72.762 52.4051 72.762 52.4051C72.762 52.4051 61.7332 49.6289 62.0395 44.539C60.8144 44.3846 59.742 44.539 59.5887 45.6185C59.5707 45.7461 59.6103 45.9546 59.702 46.2156C58.6465 46.7272 56.6777 47.8924 56.6777 49.4742C56.6777 49.7835 56.73 50.1 56.8192 50.4192C56.2555 51.0469 55.6154 52.078 55.4526 53.639C55.3884 54.2493 55.3603 54.7755 55.3685 55.2469C55.1502 55.4936 54.9083 55.8986 54.687 56.5691C54.1619 58.1559 53.9777 59.6288 54.2238 61.0863C53.7251 61.6381 53.0926 62.7249 53.0017 64.7443C52.9401 66.1025 53.0085 67.6066 53.4382 68.985C53.2807 69.5132 52.3202 72.958 53.308 75.232C53.3446 75.3155 53.3823 75.3956 53.4197 75.4769C53.355 76.1744 53.3564 77.111 53.607 78.0878C53.5673 78.4844 53.5361 78.9515 53.533 79.451ZM59.2821 83.5618C61.5411 83.4485 63.1305 82.6602 64.3647 81.514C62.642 83.644 60.5517 85.6358 58.9758 85.2584C56.0685 84.4605 54.5334 82.285 54.3616 80.0197C55.2855 81.8583 56.847 83.6848 59.2821 83.5618ZM65.9574 77.6693C64.0722 79.8949 61.0262 82.7982 58.6698 81.7112C56.6929 80.7158 55.7392 79.2331 55.2759 78.0715C56.1653 78.7957 57.3285 79.2393 58.9761 79.3968C61.2801 79.6187 64.129 78.4951 65.9574 77.6693ZM54.397 83.0646C55.6191 85.0272 57.4002 87.4074 60.2015 86.4925C62.5593 85.7227 64.597 83.7517 66.2744 81.6344C64.6403 84.2079 61.4655 88.3727 58.3635 87.7267C55.668 87.0719 54.7255 84.7735 54.397 83.0646Z" fill="#EEF3F7"/>
<path d="M71.6915 48.3682C71.6915 48.3682 69.394 46.377 68.7811 46.377C68.1683 46.377 66.9431 47.6021 66.7898 48.6745C66.6366 49.7469 67.4027 50.9721 68.3215 51.4316C69.2407 51.8912 70.0063 52.1975 70.0063 52.1975C70.0063 52.1975 70.1595 71.192 70.6191 71.9576C71.0787 72.7242 72.9167 74.5614 72.9167 74.5614H72.8967C72.8967 74.5614 74.7347 72.7234 75.1943 71.9576C75.6538 71.1917 75.8071 52.1975 75.8071 52.1975C75.8071 52.1975 76.573 51.8912 77.4918 51.4316C78.411 50.9715 79.1765 49.7469 79.0235 48.6745C78.8703 47.6021 77.6451 46.377 77.0323 46.377C76.4188 46.377 74.1218 48.3682 74.1218 48.3682C74.1218 48.3682 73.1459 49.057 71.6904 48.3682H71.6915Z" fill="#EEF3F7"/>
</svg>
