<svg width="144" height="144" viewBox="0 0 144 144" fill="none" xmlns="http://www.w3.org/2000/svg">
<path d="M25.4141 114.853C25.4141 119.248 28.9898 122.824 33.3846 122.824C34.6908 122.824 35.8651 122.098 36.4493 120.93C38.478 116.873 42.5551 114.353 47.0903 114.353H47.3992C49.2887 114.353 50.8258 112.816 50.8258 110.927V72C36.8138 72 25.4141 83.3997 25.4141 97.4118V114.853Z" fill="url(#paint0_linear_169_145)"/>
<path d="M76.2353 42.353V66.0105L84.7059 74.4811V72.0001C84.7059 67.3294 88.5058 63.5295 93.1765 63.5295C111.859 63.5295 127.059 78.7291 127.059 97.4119V114.853C127.059 123.919 119.683 131.294 110.618 131.294C106.083 131.294 102.005 128.774 99.9769 124.718C99.3928 123.549 98.2182 122.824 96.912 122.824H96.6028C90.0426 122.824 84.7059 117.487 84.7059 110.927V86.4602L72 73.7544L59.2941 86.4602V110.927C59.2941 117.487 53.9571 122.824 47.3969 122.824H47.088C45.7818 122.824 44.6075 123.549 44.0233 124.718C41.9949 128.774 37.9177 131.294 33.3823 131.294C24.3165 131.294 16.9412 123.919 16.9412 114.853V97.4119C16.9412 78.7291 32.1405 63.5295 50.8235 63.5295C55.4942 63.5295 59.2941 67.3294 59.2941 72.0001V74.4811L67.7647 66.0105V42.353H0V144H144V42.353H76.2353Z" fill="url(#paint1_linear_169_145)"/>
<path d="M96.9149 114.353C101.45 114.353 105.528 116.873 107.556 120.93C108.14 122.098 109.314 122.824 110.621 122.824C115.016 122.824 118.591 119.248 118.591 114.853V97.4118C118.591 83.3997 107.192 72 93.1797 72V110.927C93.1797 112.816 94.7165 114.353 96.606 114.353H96.9149Z" fill="url(#paint2_linear_169_145)"/>
<path d="M101.648 12.7059H88.1423L85.4639 0H58.5382L55.8595 12.7059H42.3537C29.7845 12.7059 19.3194 21.8792 17.2969 33.8824H126.705C124.682 21.8792 114.217 12.7059 101.648 12.7059V12.7059Z" fill="url(#paint3_linear_169_145)"/>
<defs>
<linearGradient id="paint0_linear_169_145" x1="43.0611" y1="79.0588" x2="11.6216" y2="98.3075" gradientUnits="userSpaceOnUse">
<stop stop-color="#224A81"/>
<stop offset="1" stop-color="#2797D3"/>
</linearGradient>
<linearGradient id="paint1_linear_169_145" x1="100" y1="56.4707" x2="38.9053" y2="162.451" gradientUnits="userSpaceOnUse">
<stop stop-color="#224A81"/>
<stop offset="1" stop-color="#2797D3"/>
</linearGradient>
<linearGradient id="paint2_linear_169_145" x1="110.827" y1="79.0588" x2="79.3872" y2="98.3075" gradientUnits="userSpaceOnUse">
<stop stop-color="#224A81"/>
<stop offset="1" stop-color="#2797D3"/>
</linearGradient>
<linearGradient id="paint3_linear_169_145" x1="93.2745" y1="4.70588" x2="82.0864" y2="48.9429" gradientUnits="userSpaceOnUse">
<stop stop-color="#224A81"/>
<stop offset="1" stop-color="#2797D3"/>
</linearGradient>
</defs>
</svg>
