<svg width="144" height="144" viewBox="0 0 144 144" fill="none" xmlns="http://www.w3.org/2000/svg">
<circle cx="72" cy="72" r="72" fill="#276EA9"/>
<path d="M90.7861 112.896H60.6665V30.9375H90.7861C99.9402 30.9375 108.506 35.2843 114.906 43.1775C121.153 50.8826 124.594 61.089 124.594 71.9165C124.594 82.744 121.153 92.9504 114.906 100.655C108.506 108.549 99.9402 112.896 90.7861 112.896Z" fill="#26ABFF"/>
<path d="M102.26 47.124H85.8686V53.2709H102.26V47.124Z" fill="#093F61"/>
<path d="M106.768 59.418H90.3762V65.5648H106.768V59.418Z" fill="#093F61"/>
<path d="M107.792 71.7114H91.4007V77.8583H107.792V71.7114Z" fill="#093F61"/>
<path d="M60.6665 112.896C51.5124 112.896 42.9468 108.549 36.5467 100.655C30.2994 92.9504 26.8588 82.744 26.8588 71.9165C26.8588 61.089 30.2994 50.8826 36.5467 43.1775C42.9468 35.2843 51.5124 30.9375 60.6665 30.9375C69.8206 30.9375 78.3862 35.2843 84.7863 43.1775C91.0336 50.8826 94.4742 61.089 94.4742 71.9165C94.4742 82.744 91.0336 92.9504 84.7863 100.655C78.3862 108.549 69.8206 112.896 60.6665 112.896Z" fill="#BCF7FC"/>
<path d="M84.7863 43.1775C78.3862 35.2843 69.8206 30.9375 60.6665 30.9375V112.896C69.8206 112.896 78.3862 108.549 84.7863 100.655C91.0336 92.9504 94.4742 82.744 94.4742 71.9165C94.4742 61.089 91.0336 50.8826 84.7863 43.1775Z" fill="#97E5FD"/>
<path d="M60.6665 100.602C54.7256 100.602 49.209 97.4842 45.1328 91.8229C41.2763 86.4668 39.1525 79.3973 39.1525 71.9167C39.1525 64.4362 41.2763 57.3667 45.133 52.0106C49.209 46.3493 54.7256 43.2314 60.6665 43.2314C66.6074 43.2314 72.124 46.3493 76.2002 52.0106C80.0567 57.3667 82.1805 64.4362 82.1805 71.9167C82.1805 79.3973 80.0567 86.4668 76.2 91.8229C72.124 97.4842 66.6074 100.602 60.6665 100.602Z" fill="#1C80B9"/>
<path d="M67.5305 99.2124L66.0341 98.3783C58.0436 93.9247 52.8805 83.5378 52.8805 71.9165C52.8805 60.2953 58.0436 49.9083 66.0341 45.4547L67.5305 44.6206L69.0268 45.4547C77.0173 49.9083 82.1805 60.2953 82.1805 71.9165C82.1805 83.5378 77.0173 93.9247 69.0268 98.3783L67.5305 99.2124Z" fill="#093F61"/>
<path d="M102.67 90.1522C104.367 90.1522 105.743 88.7762 105.743 87.0788C105.743 85.3814 104.367 84.0054 102.67 84.0054C100.973 84.0054 99.5966 85.3814 99.5966 87.0788C99.5966 88.7762 100.973 90.1522 102.67 90.1522Z" fill="#AE2665"/>
<path d="M76.8532 112.896H38.5378V87.8984H76.8532V112.896Z" fill="#AE2665"/>
<path d="M44.6847 112.896H19.6875V87.8984H44.6847V112.896Z" fill="#EF509F"/>
</svg>
