<svg width="144" height="144" viewBox="0 0 144 144" fill="none" xmlns="http://www.w3.org/2000/svg">
<path d="M89.7635 54.4866C85.0832 57.6508 78.9908 60.6782 72.0008 60.6786C71.9963 60.6786 71.9935 60.6786 71.989 60.6786C64.9865 60.6751 58.9008 57.6518 54.2284 54.491C50.7074 62.3987 47.1842 70.3043 43.6604 78.2051L43.229 79.1719C39.8346 86.7834 36.4393 94.3962 33.0469 102.006C42.9348 108.014 56.6482 114.686 71.9907 114.686C87.3188 114.686 101.048 108.012 110.951 102.003C107.415 94.0705 103.875 86.1343 100.339 78.2051L89.7635 54.4866Z" fill="url(#paint0_linear_169_163)"/>
<path d="M139.781 0H4.21875C1.88887 0 0 2.30263 0 5.14286V138.857C0 141.697 1.88887 144 4.21875 144H139.781C142.111 144 144 141.697 144 138.857V5.14286C144 2.30263 142.111 0 139.781 0ZM21.0814 20.5714H49.2064C51.5362 20.5714 53.4251 22.8741 53.4251 25.7143C53.4251 28.5545 51.5362 30.8571 49.2064 30.8571H21.0814C18.7515 30.8571 16.8626 28.5545 16.8626 25.7143C16.8626 22.8741 18.7512 20.5714 21.0814 20.5714ZM16.8626 46.2857C16.8626 43.4455 18.7515 41.1429 21.0814 41.1429H30.9251C33.255 41.1429 35.1439 43.4455 35.1439 46.2857C35.1439 49.1259 33.255 51.4286 30.9251 51.4286H21.0814C18.7512 51.4286 16.8626 49.1259 16.8626 46.2857ZM120.757 105.657C120.432 106.972 119.688 108.074 118.692 108.716C107.875 115.694 91.2651 124.971 71.991 124.971C52.6967 124.971 36.106 115.693 25.3052 108.715C24.3098 108.072 23.5671 106.97 23.2419 105.655C22.9168 104.341 23.0363 102.922 23.5741 101.715C27.6522 92.5653 31.7346 83.4117 35.8166 74.2591L36.2481 73.2919C40.4736 63.8174 44.6988 54.337 48.9195 44.8519C49.4806 43.5909 50.4481 42.6734 51.5883 42.3195C52.7282 41.9667 53.9381 42.2098 54.925 42.9905C58.9379 46.1667 65.0728 50.3894 71.9927 50.3928H72.0008C78.8996 50.3928 85.0452 46.1674 89.0688 42.9885C90.0551 42.2085 91.2628 41.9664 92.4027 42.3195C93.5418 42.6727 94.5084 43.5888 95.0698 44.8478L107.752 73.2919C111.976 82.7623 116.204 92.2433 120.426 101.715C120.964 102.922 121.083 104.342 120.757 105.657V105.657ZM122.894 30.8571H113.05C110.72 30.8571 108.831 28.5545 108.831 25.7143C108.831 22.8741 110.72 20.5714 113.05 20.5714H122.894C125.223 20.5714 127.112 22.8741 127.112 25.7143C127.112 28.5545 125.223 30.8571 122.894 30.8571Z" fill="url(#paint1_linear_169_163)"/>
<defs>
<linearGradient id="paint0_linear_169_163" x1="91.1834" y1="60.3393" x2="42.7243" y2="114.652" gradientUnits="userSpaceOnUse">
<stop stop-color="#224C83"/>
<stop offset="1" stop-color="#2794CF"/>
</linearGradient>
<linearGradient id="paint1_linear_169_163" x1="107.461" y1="14" x2="-8.01521" y2="114.012" gradientUnits="userSpaceOnUse">
<stop stop-color="#224C83"/>
<stop offset="1" stop-color="#2794CF"/>
</linearGradient>
</defs>
</svg>
