<svg width="144" height="144" viewBox="0 0 144 144" fill="none" xmlns="http://www.w3.org/2000/svg">
<path fill-rule="evenodd" clip-rule="evenodd" d="M72.0001 12.6857C88.6969 -4.5209 115.144 -4.22371 131.502 13.5785C139.561 22.349 144 34.0101 144 46.4133C144 48.8686 143.823 51.2935 143.482 53.6738H85.1483L76.9231 65.6684L63.793 39.9658L50.5039 66.7066L32.6852 23.5935L19.2072 53.6738H0.518063C0.176625 51.2935 0 48.8683 0 46.4133C0 34.0101 4.4387 22.349 12.4982 13.5785C28.8574 -4.22371 55.304 -4.5209 72.0001 12.6857ZM75.8856 82.5343L89.3797 62.8559H141.257C139.145 68.9365 135.852 74.5139 131.502 79.2481L71.9998 144L12.4976 79.2481C8.14722 74.5139 4.85405 68.9365 2.74243 62.8559H24.4797L32.3767 45.2322L49.8083 87.4087L63.895 59.0629L75.8856 82.5343Z" fill="url(#paint0_linear_169_153)"/>
<defs>
<linearGradient id="paint0_linear_169_153" x1="116.704" y1="3.5" x2="20.9173" y2="118.676" gradientUnits="userSpaceOnUse">
<stop offset="0.0517537" stop-color="#224D84"/>
<stop offset="1" stop-color="#2791CD"/>
</linearGradient>
</defs>
</svg>
