<svg width="144" height="144" viewBox="0 0 144 144" fill="none" xmlns="http://www.w3.org/2000/svg">
<path d="M72 144C111.765 144 144 111.765 144 72C144 32.2355 111.765 0 72 0C32.2355 0 0 32.2355 0 72C0 111.765 32.2355 144 72 144Z" fill="#21D0C3"/>
<path d="M96.5273 108.213L101.319 116.804L95.8126 119.876L91.021 111.285C91.9441 110.796 92.8682 110.296 93.7916 109.78C94.7155 109.265 95.6262 108.743 96.5273 108.213Z" fill="#666666"/>
<path d="M51.0772 33.2038C72.3141 21.3581 99.1356 28.9719 110.982 50.2088C122.827 71.4454 115.213 98.266 93.9763 110.112C72.7391 121.957 45.9194 114.344 34.0734 93.107C22.2275 71.8701 29.84 45.049 51.0772 33.2038Z" fill="#666666"/>
<path d="M53.8571 38.1857C72.3425 27.875 95.6877 34.5019 105.998 52.9873C116.309 71.4727 109.683 94.8179 91.1975 105.129C72.7115 115.44 49.3666 108.813 39.0552 90.3283C28.7443 71.8428 35.3714 48.4969 53.8571 38.1857Z" fill="#D9DADA"/>
<path d="M113.759 130.659L107.266 119.021C106.597 117.82 105.082 117.374 103.915 118.024L95.4838 122.728C94.3177 123.378 93.9048 124.906 94.5717 126.102L101.129 137.859C105.596 135.88 109.825 133.464 113.759 130.659Z" fill="#666666"/>
<path d="M108.225 120.739L106.132 116.986C105.462 115.785 103.952 115.336 102.781 115.989L94.349 120.692C93.179 121.345 92.7672 122.867 93.4363 124.067L95.5302 127.821L108.225 120.739Z" fill="#FEFEFE"/>
<path d="M108.225 120.74L106.132 116.986C105.491 115.836 104.08 115.377 102.932 115.913L106.241 121.846L108.225 120.74ZM94.2041 120.781C93.146 121.475 92.7956 122.918 93.4363 124.067L95.5302 127.821L97.5133 126.715L94.2041 120.781Z" fill="#ECF0F1"/>
<path d="M87.7081 106.347C70.3685 114.68 49.0708 107.751 39.2822 90.2015C29.4927 72.6518 34.7864 50.8898 50.9875 40.5142C49.4626 41.9325 48.0769 43.4676 46.8326 45.0983C36.7622 56.5524 34.5901 73.8645 42.6535 88.3205C50.717 102.776 66.5888 110.024 81.6252 107.474C83.6663 107.272 85.7006 106.899 87.7081 106.347Z" fill="#FEFEFE"/>
<path d="M95.6343 98.4391C109.944 89.2118 114.263 69.3016 105.155 52.9725C96.0475 36.6437 76.8372 29.8588 61.4669 37.1868C61.8587 37.0841 62.2525 36.9893 62.6456 36.9019C77.5086 31.4993 95.0763 38.4082 103.664 53.805C112.252 69.2006 108.901 87.7783 96.4955 97.5866C96.2137 97.8754 95.9268 98.1604 95.6343 98.4391Z" fill="#FEFEFE"/>
<path d="M66.8292 68.2393C70.6272 68.2393 74.4252 68.2393 78.2226 68.2393L78.285 69.018L72.7171 77.4586L66.7361 68.9345L66.8292 68.2393Z" fill="#B3B3B3"/>
<path d="M66.9029 66.121L66.8045 70.8829L58.7264 75.2999V91.4918H72.3243H85.9211V75.2999L78.4139 70.6334L78.0019 65.8735L66.9029 66.121Z" fill="#F0BA7D"/>
<path d="M63.1701 52.2372C63.1701 52.2372 62.7072 51.2191 61.4635 51.7242C60.2201 52.2282 61.52 57.2572 61.9947 57.9587C62.4695 58.6598 63.2342 58.2143 63.5126 58.187C63.9084 61.1849 63.9435 63.2512 65.1442 64.5149C66.2807 65.7122 68.8834 68.1514 70.2542 69.0022C71.1829 69.198 71.8753 69.3136 72.5267 69.3479C73.1781 69.3136 73.8714 69.198 74.7995 69.0022C76.1703 68.1514 78.773 65.7122 79.9095 64.5149C81.1096 63.2512 81.1451 61.1849 81.5408 58.187C81.8192 58.2143 82.5839 58.6598 83.0587 57.9587C83.5346 57.2572 84.8342 52.2282 83.59 51.7242C82.3463 51.2194 81.8831 52.2372 81.8831 52.2372C81.8831 52.2372 83.1121 48.2887 80.9274 44.4013C79.43 41.7364 76.0145 40.3547 72.5264 40.2534C69.0384 40.3547 65.6231 41.7367 64.1255 44.4013C61.941 48.289 63.1701 52.2372 63.1701 52.2372Z" fill="#FED298"/>
<path d="M62.8431 72.2841L64.7775 71.5222L66.3362 70.1213L71.8409 74.2964H73.2117L78.718 70.1162L82.2105 72.2844L88.2799 82.6009L83.529 108.377C76.8783 110.376 69.9424 110.478 63.432 108.887L54.911 83.4247L62.8431 72.2841Z" fill="#15BDB2"/>
<path d="M80.4446 70.9792L78.2227 68.2393L73.2117 74.2963L77.5128 79.075L80.4446 70.9792Z" fill="#21D0C3"/>
<path d="M64.6045 70.9308L66.8295 68.2393L71.8408 74.2963L67.3689 79.0258L64.6045 70.9308Z" fill="#21D0C3"/>
<path d="M64.6045 70.9312L49.8758 75.7211C49.2767 75.9155 48.9004 76.4248 48.7789 77.0427L44.6493 97.9702C47.5276 101.024 50.8472 103.536 54.4503 105.459L56.4711 98.8643C56.4955 98.7845 56.5723 98.7338 56.6564 98.7437C56.7394 98.7541 56.8035 98.8205 56.8083 98.9046L57.1036 106.745C61.9487 108.871 67.2061 109.984 72.5271 109.989V107.424L64.6045 70.9312Z" fill="white"/>
<path d="M80.4445 70.9795L95.1778 75.7211C95.7783 75.914 96.1523 76.4248 96.2744 77.0427L100.405 97.9719C97.785 100.746 94.7056 103.172 91.197 105.129C90.999 105.24 90.7999 105.345 90.6005 105.452L88.5819 98.8643C88.5569 98.7841 88.4798 98.7332 88.3963 98.7434C88.3128 98.7538 88.2495 98.8204 88.2444 98.9048L87.9497 106.744C82.9642 108.943 77.7156 109.993 72.5265 109.989V107.424L80.4445 70.9795Z" fill="white"/>
<path d="M74.1962 107.252C73.6995 107.252 73.2965 107.654 73.2965 108.149C73.2965 108.645 73.6995 109.046 74.1962 109.046C74.6929 109.046 75.0959 108.645 75.0959 108.149C75.0959 107.654 74.6926 107.252 74.1962 107.252Z" fill="#D9DADA"/>
<path d="M80.8108 53.4135L81.677 53.3834L81.9555 52.3945L82.7722 51.5797C83.3111 47.5199 83.4703 41.2011 79.4408 41.3833C79.4408 41.3833 79.0772 36.7753 71.8082 37.679C64.5388 38.5829 61.2535 43.275 61.6456 47.1908C62.0373 51.1056 61.8787 51.58 61.8787 51.58L62.6952 52.3948L62.8181 53.5201L63.5316 53.4754C63.5316 53.4754 63.7549 51.969 63.9782 51.3064C64.2027 50.644 64.1327 49.3036 64.1327 49.3036C64.1327 49.3036 72.7186 49.8506 75.0387 46.8992C76.4719 45.0772 79.7626 41.9185 79.9291 46.2925C79.9783 47.5891 79.4962 49.5331 80.4184 50.9483C81.3423 52.363 80.8111 53.4135 80.8108 53.4135Z" fill="#666666"/>
<path d="M72.5268 107.424L74.8479 96.7415L73.2712 75.6837L74.1302 75.317L73.2116 74.2969H71.8408L70.8983 75.2934L71.7826 75.6837L70.245 96.9119L72.5268 107.424Z" fill="#0F7986"/>
<path d="M74.1161 107.252C73.6633 107.252 73.2963 107.618 73.2963 108.069C73.2963 108.52 73.663 108.886 74.1161 108.886C74.5678 108.886 74.9351 108.52 74.9351 108.069C74.9354 107.618 74.5678 107.252 74.1161 107.252Z" fill="white"/>
<path d="M86.9606 93.7292C85.3653 93.4542 84.2951 91.9371 84.5711 90.3421C84.8464 88.7475 86.3626 87.677 87.9581 87.9524C89.5534 88.2277 90.6233 89.745 90.3474 91.34C90.0723 92.9341 88.5555 94.0043 86.9606 93.7292Z" fill="#FEFEFE"/>
<path d="M86.9898 93.5598C85.487 93.301 84.4793 91.8731 84.7392 90.3707C84.9985 88.868 86.4267 87.8603 87.9288 88.1199C89.4316 88.3792 90.4387 89.8073 90.1794 91.3098C89.9201 92.8125 88.4916 93.8194 86.9898 93.5598Z" fill="#0F7986"/>
<path d="M87.199 92.3456C86.3679 92.2022 85.8108 91.4113 85.9545 90.5802C86.0976 89.7491 86.8879 89.1923 87.7185 89.3354C88.5501 89.4794 89.107 90.2689 88.9636 91.1005C88.821 91.9314 88.0307 92.4894 87.199 92.3456Z" fill="#EBECEC"/>
<path d="M87.3788 89.4992L88.0501 89.6148L88.4104 87.5246L87.7399 87.4087L87.3788 89.4992Z" fill="#FEFEFE"/>
<path d="M64.9009 94.3088L66.1584 94.0594C66.6928 93.9533 67.1354 93.6383 67.4175 93.2164C67.6994 92.7948 67.8217 92.2655 67.7154 91.7312L66.2363 84.2797C65.6783 81.4678 63.4786 80.0337 60.9651 79.7156C60.0021 79.5941 58.9921 79.6382 58.0137 79.832C57.0346 80.0255 56.0854 80.3698 55.2425 80.8504C53.0465 82.1009 51.5663 84.2634 52.1257 87.0801L53.6048 94.5318C53.7105 95.0665 54.0261 95.5083 54.4474 95.7904H54.4485C54.871 96.0725 55.3992 96.1946 55.9338 96.0883L57.1899 95.8394L57.0875 95.321L55.8303 95.5705C55.4385 95.6484 55.0501 95.559 54.7413 95.3523C54.4319 95.1441 54.2008 94.8207 54.1226 94.4289L52.6435 86.9769C52.1364 84.4215 53.4923 82.4522 55.5021 81.3083C56.2955 80.8555 57.1916 80.5304 58.1163 80.3473C59.0411 80.1642 59.9928 80.1228 60.9001 80.2373C63.2005 80.5284 65.2125 81.8317 65.7188 84.3824L67.1982 91.8341C67.2755 92.2248 67.1858 92.6132 66.9794 92.9223C66.7718 93.2319 66.4481 93.4631 66.056 93.541L64.7985 93.7902L64.9009 94.3088Z" fill="#21D0C3"/>
<path d="M66.6357 85.3833L66.4098 84.2456C65.8347 81.3465 63.5712 79.8683 60.9873 79.5417C60.0055 79.418 58.9772 79.4624 57.9805 79.6596C56.984 79.8573 56.0165 80.2083 55.157 80.6977C52.8983 81.9841 51.3776 84.2108 51.9539 87.1147L52.1794 88.2532L53.0431 88.0813L52.8167 86.9428C52.3274 84.4746 53.6422 82.5691 55.5887 81.4604C56.3672 81.0175 57.2447 80.6994 58.1515 80.5196C59.0577 80.3399 59.9911 80.2994 60.8802 80.4116C63.1088 80.6935 65.0579 81.9532 65.5467 84.4164L65.7722 85.5549L66.6357 85.3833Z" fill="#4D4D4D"/>
<path d="M56.1931 96.1505L56.8662 96.0169C57.0349 96.2067 57.2962 96.3038 57.5625 96.2509C57.963 96.1716 58.2229 95.7823 58.1433 95.3816C58.0643 94.9825 57.6756 94.722 57.2743 94.8013C57.0082 94.8545 56.8034 95.0443 56.7202 95.2842L56.0477 95.4176L56.1931 96.1505Z" fill="#076673"/>
<path d="M65.4353 94.3159L64.7637 94.4495C64.6799 94.6888 64.4757 94.8792 64.2091 94.9318C63.8089 95.0109 63.4205 94.7507 63.3412 94.3502C63.2618 93.9508 63.5214 93.5619 63.9214 93.482C64.188 93.4291 64.4498 93.5275 64.6178 93.716L65.2902 93.5827L65.4353 94.3159Z" fill="#076673"/>
<path d="M58.3895 79.5922L58.133 78.2993L57.6234 78.4006L57.114 78.5013L57.3733 79.8065C57.5677 79.7497 57.7645 79.7019 57.9628 79.6625C58.1037 79.6347 58.2463 79.6111 58.3895 79.5922Z" fill="#666666"/>
<path d="M57.2887 95.4319C57.4102 95.4077 57.4887 95.2895 57.4642 95.1689C57.4403 95.0477 57.3233 94.9686 57.2018 94.9925C57.0808 95.0176 57.0021 95.1349 57.026 95.2558C57.0505 95.3765 57.1678 95.4552 57.2887 95.4319Z" fill="#0F7986"/>
<path d="M63.9399 94.1088C64.0603 94.0852 64.139 93.9676 64.1151 93.8469C64.0909 93.7254 63.9736 93.6467 63.8521 93.6709C63.7309 93.6948 63.6522 93.8126 63.6764 93.9338C63.7008 94.0548 63.8181 94.133 63.9399 94.1088Z" fill="#0F7986"/>
<path d="M87.1177 92.3319C86.3317 92.1964 85.8043 91.4482 85.9401 90.6627C86.0757 89.8766 86.8227 89.3496 87.6088 89.4851C88.3949 89.6207 88.922 90.368 88.7867 91.1538C88.6506 91.9396 87.903 92.4675 87.1177 92.3319Z" fill="#FEFEFE"/>
<path d="M64.6118 71.3187C64.589 71.3192 56.6505 71.3848 57.992 78.3299L57.2529 78.4711C55.7415 70.6411 64.5778 70.5694 64.6031 70.5688L64.6118 71.3187Z" fill="#4D4D4D"/>
<path d="M80.4535 70.604C81.7484 70.6392 84.2527 70.9924 86.1792 73.3364C88.0653 75.6305 89.3875 79.8436 88.3989 87.5676L87.6541 87.4739C88.6109 79.9975 87.3751 75.9719 85.5996 73.8133C83.866 71.7037 81.6047 71.3856 80.4355 71.3541L80.4535 70.604Z" fill="#4D4D4D"/>
</svg>
