<?xml version="1.0" encoding="UTF-8" standalone="no"?>
<!-- Created with Inkscape (http://www.inkscape.org/) -->

<svg
   width="38.100002mm"
   height="38.100002mm"
   viewBox="0 0 38.100002 38.100002"
   version="1.1"
   id="svg2861"
   inkscape:version="1.1.1 (3bf5ae0d25, 2021-09-20)"
   sodipodi:docname="ФГДС.svg"
   xmlns:inkscape="http://www.inkscape.org/namespaces/inkscape"
   xmlns:sodipodi="http://sodipodi.sourceforge.net/DTD/sodipodi-0.dtd"
   xmlns="http://www.w3.org/2000/svg"
   xmlns:svg="http://www.w3.org/2000/svg">
  <sodipodi:namedview
     id="namedview2863"
     pagecolor="#ffffff"
     bordercolor="#666666"
     borderopacity="1.0"
     inkscape:pageshadow="2"
     inkscape:pageopacity="0.0"
     inkscape:pagecheckerboard="0"
     inkscape:document-units="mm"
     showgrid="false"
     inkscape:zoom="0.64052329"
     inkscape:cx="179.5407"
     inkscape:cy="386.40281"
     inkscape:window-width="1920"
     inkscape:window-height="1017"
     inkscape:window-x="-8"
     inkscape:window-y="-8"
     inkscape:window-maximized="1"
     inkscape:current-layer="layer1" />
  <defs
     id="defs2858" />
  <g
     inkscape:label="Слой 1"
     inkscape:groupmode="layer"
     id="layer1"
     transform="translate(-57.368637,-46.215622)">
    <g
       id="g3391"
       transform="translate(-111.91118,-99.042377)">
      <path
         style="fill:#fbe6a0;stroke-width:0.999999"
         d="m 187.15244,183.3117 c 0.11312,-0.017 0.28055,-0.017 0.37207,0 0.0915,0.018 -0.001,0.032 -0.20566,0.031 -0.20464,-6e-4 -0.27952,-0.015 -0.16641,-0.032 z m 2.00918,0 c 0.11312,-0.017 0.28055,-0.017 0.37207,0 0.0915,0.018 -0.001,0.032 -0.20566,0.031 -0.20464,-6e-4 -0.27952,-0.015 -0.16641,-0.032 z m -2.94038,-0.07 c 0.0512,-0.021 0.13488,-0.021 0.18604,0 0.0512,0.021 0.009,0.038 -0.093,0.038 -0.10232,0 -0.14418,-0.017 -0.093,-0.038 z m 4.01836,0 c 0.0512,-0.021 0.13488,-0.021 0.18604,0 0.0512,0.021 0.009,0.038 -0.093,0.038 -0.10232,0 -0.14418,-0.017 -0.093,-0.038 z m -4.61367,-0.074 c 0.0512,-0.021 0.13488,-0.021 0.18604,0 0.0512,0.021 0.009,0.038 -0.093,0.038 -0.10232,0 -0.14418,-0.017 -0.093,-0.038 z m 5.20899,0 c 0.0512,-0.021 0.13487,-0.021 0.18603,0 0.0512,0.021 0.009,0.038 -0.093,0.038 -0.10232,0 -0.14417,-0.017 -0.093,-0.038 z m -6.09731,-0.1504 c 0.0537,-0.022 0.1179,-0.019 0.14263,0.01 0.0247,0.025 -0.0192,0.042 -0.0977,0.039 -0.0867,0 -0.10432,-0.021 -0.045,-0.045 z m 7.06934,0 c 0.0537,-0.022 0.1179,-0.019 0.14263,0.01 0.0247,0.025 -0.0192,0.042 -0.0977,0.039 -0.0867,0 -0.10432,-0.021 -0.045,-0.045 z m -8.11113,-0.2232 c 0.0537,-0.022 0.1179,-0.019 0.14262,0.01 0.0247,0.025 -0.0192,0.042 -0.0977,0.039 -0.0867,0 -0.10432,-0.021 -0.0449,-0.045 z m 9.15293,0 c 0.0537,-0.022 0.1179,-0.019 0.14262,0.01 0.0247,0.025 -0.0192,0.042 -0.0977,0.039 -0.0867,0 -0.10433,-0.021 -0.045,-0.045 z m -16.21781,-3.4281 c -0.0926,-0.118 -0.0899,-0.1206 0.0281,-0.028 0.0716,0.056 0.13022,0.1147 0.13022,0.1302 0,0.061 -0.0611,0.022 -0.15832,-0.1022 z m 23.22668,0.1022 c 0,-0.015 0.0586,-0.074 0.13023,-0.1302 0.11802,-0.093 0.12065,-0.09 0.0281,0.028 -0.0972,0.124 -0.15832,0.1634 -0.15832,0.1022 z m -24.08002,-0.8091 -0.14176,-0.1674 0.16743,0.1417 c 0.15735,0.1333 0.20131,0.1931 0.14176,0.1931 -0.0141,0 -0.0895,-0.075 -0.16743,-0.1674 z m 25.0102,0.019 c 0.0741,-0.082 0.15143,-0.1488 0.17189,-0.1488 0.0205,0 -0.0234,0.067 -0.0975,0.1488 -0.0741,0.082 -0.15143,0.1488 -0.17189,0.1488 -0.0205,0 0.0234,-0.067 0.0975,-0.1488 z m -25.7841,-0.7065 -0.25206,-0.2601 -0.19042,0.1671 -0.19042,0.167 0.1816,-0.2059 0.1816,-0.2059 0.28349,0.2768 c 0.15592,0.1523 0.28349,0.2868 0.28349,0.2989 0,0.054 -0.0618,0 -0.29728,-0.2379 z m 26.75148,-0.1865 c 0.243,-0.2455 0.45857,-0.4464 0.47903,-0.4464 0.0205,0 -0.16161,0.2009 -0.40462,0.4464 -0.243,0.2456 -0.45856,0.4465 -0.47903,0.4465 -0.0205,0 0.16162,-0.2009 0.40462,-0.4465 z m 0.89297,-0.9673 c 0.0741,-0.082 0.15143,-0.1489 0.17189,-0.1489 0.0205,0 -0.0234,0.067 -0.0975,0.1489 -0.0741,0.082 -0.15143,0.1488 -0.17189,0.1488 -0.0205,0 0.0234,-0.067 0.0975,-0.1488 z m 0.63252,-0.7723 c 0,-0.015 0.0586,-0.074 0.13022,-0.1302 0.11803,-0.093 0.12066,-0.09 0.0281,0.028 -0.0972,0.124 -0.15832,0.1634 -0.15832,0.1021 z m -33.48046,-7.159 c 0.004,-0.087 0.0212,-0.1044 0.045,-0.045 0.0215,0.054 0.0188,0.1179 -0.006,0.1426 -0.0247,0.025 -0.0423,-0.019 -0.0391,-0.098 z m 36.98379,0 c 0.004,-0.087 0.0212,-0.1044 0.045,-0.045 0.0215,0.054 0.0189,0.1179 -0.006,0.1426 -0.0247,0.025 -0.0423,-0.019 -0.0391,-0.098 z m -37.20703,-1.0418 c 0.004,-0.087 0.0212,-0.1044 0.045,-0.045 0.0215,0.054 0.0189,0.1179 -0.006,0.1426 -0.0247,0.025 -0.0423,-0.019 -0.0391,-0.098 z m 37.43028,0 c 0.004,-0.087 0.0212,-0.1044 0.0449,-0.045 0.0215,0.054 0.0189,0.1179 -0.006,0.1426 -0.0247,0.025 -0.0423,-0.019 -0.0391,-0.098 z m -37.57323,-0.924 c 0,-0.1023 0.0169,-0.1442 0.0375,-0.093 0.0206,0.051 0.0206,0.1349 0,0.186 -0.0206,0.051 -0.0375,0.01 -0.0375,-0.093 z m 37.72793,0 c 0,-0.1023 0.0169,-0.1442 0.0375,-0.093 0.0207,0.051 0.0207,0.1349 0,0.186 -0.0206,0.051 -0.0375,0.01 -0.0375,-0.093 z m -37.80235,-0.5953 c 0,-0.1023 0.0169,-0.1442 0.0375,-0.093 0.0206,0.051 0.0206,0.1348 0,0.186 -0.0207,0.051 -0.0375,0.01 -0.0375,-0.093 z m 37.87676,0 c 0,-0.1023 0.0169,-0.1442 0.0375,-0.093 0.0206,0.051 0.0206,0.1348 0,0.186 -0.0207,0.051 -0.0375,0.01 -0.0375,-0.093 z m -37.94164,-1.0046 c 5.6e-4,-0.2046 0.015,-0.2795 0.0321,-0.1664 0.0171,0.1131 0.0166,0.2805 -0.001,0.3721 -0.0177,0.091 -0.0317,0 -0.0311,-0.2057 z m 38.02559,0 c 6e-4,-0.2046 0.015,-0.2795 0.0321,-0.1664 0.0171,0.1131 0.0166,0.2805 -0.001,0.3721 -0.0177,0.091 -0.0317,0 -0.0311,-0.2057 z m -38.02559,-2.0092 c 5.6e-4,-0.2046 0.015,-0.2795 0.0321,-0.1664 0.0171,0.1131 0.0166,0.2805 -0.001,0.3721 -0.0177,0.091 -0.0317,0 -0.0311,-0.2057 z m 38.02559,0 c 6e-4,-0.2046 0.015,-0.2795 0.0321,-0.1664 0.0171,0.1131 0.0166,0.2805 -0.001,0.3721 -0.0177,0.091 -0.0317,0 -0.0311,-0.2057 z M 169.3596,162.307 c 0,-0.1023 0.0169,-0.1442 0.0375,-0.093 0.0206,0.051 0.0206,0.1349 0,0.186 -0.0207,0.051 -0.0375,0.01 -0.0375,-0.093 z m 37.87676,0 c 0,-0.1023 0.0169,-0.1442 0.0375,-0.093 0.0206,0.051 0.0206,0.1349 0,0.186 -0.0207,0.051 -0.0375,0.01 -0.0375,-0.093 z m -37.80234,-0.5953 c 0,-0.1023 0.0169,-0.1442 0.0375,-0.093 0.0206,0.051 0.0206,0.1349 0,0.186 -0.0206,0.051 -0.0375,0.01 -0.0375,-0.093 z m 37.72793,0 c 0,-0.1023 0.0169,-0.1442 0.0375,-0.093 0.0207,0.051 0.0207,0.1349 0,0.186 -0.0206,0.051 -0.0375,0.01 -0.0375,-0.093 z m -37.58498,-0.9364 c 0.004,-0.087 0.0212,-0.1043 0.045,-0.045 0.0215,0.054 0.0189,0.1179 -0.006,0.1426 -0.0247,0.025 -0.0423,-0.019 -0.0391,-0.098 z m 37.43028,0 c 0.004,-0.087 0.0212,-0.1043 0.0449,-0.045 0.0215,0.054 0.0189,0.1179 -0.006,0.1426 -0.0247,0.025 -0.0423,-0.019 -0.0391,-0.098 z m -37.20704,-1.0418 c 0.004,-0.087 0.0212,-0.1043 0.045,-0.045 0.0215,0.054 0.0188,0.1179 -0.006,0.1426 -0.0247,0.025 -0.0423,-0.019 -0.0391,-0.098 z m 36.98379,0 c 0.004,-0.087 0.0212,-0.1043 0.045,-0.045 0.0215,0.054 0.0189,0.1179 -0.006,0.1426 -0.0247,0.025 -0.0423,-0.019 -0.0391,-0.098 z m -33.64103,-6.9796 c 0,-0.015 0.0586,-0.074 0.13023,-0.1302 0.11802,-0.093 0.12065,-0.09 0.0281,0.028 -0.0972,0.124 -0.15832,0.1634 -0.15832,0.1021 z m 30.20262,-0.1021 c -0.0926,-0.118 -0.0899,-0.1207 0.0281,-0.028 0.0716,0.056 0.13022,0.1148 0.13022,0.1302 0,0.061 -0.0611,0.022 -0.15832,-0.1021 z m -29.42127,-0.8372 c 0.0741,-0.082 0.15143,-0.1488 0.17189,-0.1488 0.0205,0 -0.0234,0.067 -0.0975,0.1488 -0.0741,0.082 -0.15143,0.1489 -0.17189,0.1489 -0.0205,0 0.0234,-0.067 0.0975,-0.1489 z m 28.71676,-0.019 -0.14176,-0.1674 0.16743,0.1418 c 0.15735,0.1332 0.20131,0.1931 0.14176,0.1931 -0.0141,0 -0.0895,-0.075 -0.16743,-0.1675 z m -27.82379,-0.9487 c 0.243,-0.2456 0.45857,-0.4465 0.47903,-0.4465 0.0205,0 -0.16161,0.2009 -0.40462,0.4465 -0.243,0.2455 -0.45857,0.4464 -0.47903,0.4464 -0.0205,0 0.16161,-0.2009 0.40462,-0.4464 z m 26.93556,-0.019 -0.44415,-0.4651 0.46508,0.4441 c 0.43203,0.4126 0.49914,0.486 0.44416,0.486 -0.0115,0 -0.2208,-0.2093 -0.46509,-0.465 z m -25.96818,-0.8744 c 0.0741,-0.082 0.15143,-0.1488 0.1719,-0.1488 0.0205,0 -0.0234,0.067 -0.0975,0.1488 -0.0741,0.082 -0.15143,0.1488 -0.17189,0.1488 -0.0205,0 0.0234,-0.067 0.0975,-0.1488 z m 24.99606,-0.019 -0.14176,-0.1674 0.16743,0.1417 c 0.15734,0.1332 0.20131,0.1931 0.14176,0.1931 -0.0141,0 -0.0895,-0.075 -0.16743,-0.1674 z m -24.21471,-0.6048 c 0,-0.015 0.0586,-0.074 0.13022,-0.1302 0.11803,-0.093 0.12066,-0.09 0.0281,0.028 -0.0972,0.124 -0.15832,0.1634 -0.15832,0.1022 z m 23.35652,-0.1022 c -0.0926,-0.118 -0.0899,-0.1206 0.0281,-0.028 0.12395,0.097 0.16337,0.1583 0.10213,0.1583 -0.0154,0 -0.0741,-0.059 -0.13023,-0.1303 z m -16.22672,-3.418 c 0.0537,-0.022 0.1179,-0.019 0.14262,0.01 0.0247,0.025 -0.0192,0.042 -0.0977,0.039 -0.0867,0 -0.10432,-0.021 -0.0449,-0.045 z m 9.15293,0 c 0.0537,-0.022 0.1179,-0.019 0.14262,0.01 0.0247,0.025 -0.0192,0.042 -0.0977,0.039 -0.0867,0 -0.10433,-0.021 -0.045,-0.045 z m -8.11114,-0.2233 c 0.0537,-0.022 0.1179,-0.019 0.14263,0.01 0.0247,0.025 -0.0192,0.042 -0.0977,0.039 -0.0867,0 -0.10432,-0.021 -0.045,-0.045 z m 7.06934,0 c 0.0537,-0.022 0.1179,-0.019 0.14263,0.01 0.0247,0.025 -0.0192,0.042 -0.0977,0.039 -0.0867,0 -0.10432,-0.021 -0.045,-0.045 z m -6.18102,-0.1472 c 0.0512,-0.021 0.13488,-0.021 0.18604,0 0.0512,0.021 0.009,0.037 -0.093,0.037 -0.10232,0 -0.14418,-0.017 -0.093,-0.037 z m 5.20899,0 c 0.0512,-0.021 0.13487,-0.021 0.18603,0 0.0512,0.021 0.009,0.037 -0.093,0.037 -0.10232,0 -0.14417,-0.017 -0.093,-0.037 z m -4.61368,-0.075 c 0.0512,-0.021 0.13488,-0.021 0.18604,0 0.0512,0.021 0.009,0.038 -0.093,0.038 -0.10232,0 -0.14418,-0.017 -0.093,-0.038 z m 4.01836,0 c 0.0512,-0.021 0.13488,-0.021 0.18604,0 0.0512,0.021 0.009,0.038 -0.093,0.038 -0.10232,0 -0.14418,-0.017 -0.093,-0.038 z m -3.08716,-0.078 c 0.11312,-0.017 0.28055,-0.017 0.37207,0 0.0915,0.018 -0.001,0.032 -0.20566,0.031 -0.20464,-5e-4 -0.27952,-0.015 -0.16641,-0.032 z m 2.00918,0 c 0.11312,-0.017 0.28055,-0.017 0.37207,0 0.0915,0.018 -0.001,0.032 -0.20566,0.031 -0.20464,-5e-4 -0.27952,-0.015 -0.16641,-0.032 z"
         id="path15916-9" />
      <path
         style="fill:#ffb0bb;fill-opacity:1;stroke-width:0.999999"
         d="m 187.28164,183.3202 c -4.54694,-0.3027 -8.6998,-2.0656 -11.86904,-5.0383 -0.64166,-0.6019 -0.66444,-0.6341 -0.54359,-0.769 0.19217,-0.2145 0.42851,-0.7809 0.43028,-1.0311 8.6e-4,-0.1228 -0.0977,-0.433 -0.21894,-0.6894 -0.51323,-1.0848 -0.72312,-2.3774 -0.52356,-3.2242 0.30291,-1.2853 1.40718,-2.2516 3.30664,-2.8937 1.20247,-0.4064 1.9171,-0.3704 2.34624,0.1184 0.27384,0.3119 0.33801,0.6452 0.25437,1.3211 -0.0361,0.292 -0.0627,1.0667 -0.059,1.7215 0.006,1.0705 0.0271,1.2582 0.20894,1.8604 0.47002,1.556 1.42485,2.7271 2.78599,3.4168 1.88526,0.9554 5.8338,1.0459 8.68322,0.1991 4.88988,-1.4531 8.82839,-5.6342 10.6613,-11.3178 0.94459,-2.929 1.18365,-6.1023 0.64982,-8.6257 -0.63549,-3.0041 -2.36375,-5.0865 -4.73025,-5.6998 -1.23651,-0.3204 -2.4671,-0.2916 -3.6635,0.086 -1.18041,0.3723 -2.1551,0.9523 -3.64207,2.1674 -0.3122,0.2551 -0.60697,0.4638 -0.65503,0.4638 -0.16923,0 -0.50553,-0.2999 -0.72926,-0.6503 -0.39749,-0.6225 -0.78127,-1.7581 -1.02513,-3.0332 -0.17624,-0.9216 -0.1792,-2.6273 -0.005,-3.0813 0.11176,-0.2919 0.11347,-0.3466 0.0155,-0.4961 -0.23497,-0.3586 -1.49365,-0.6707 -2.4434,-0.6059 -0.72284,0.049 -1.23485,0.2139 -1.53327,0.4926 -0.28743,0.2685 -0.34148,0.6828 -0.33105,2.5373 0.007,1.2046 0.041,1.6384 0.20157,2.5537 0.31476,1.7945 0.89142,3.2755 1.7476,4.488 0.45083,0.6385 0.81159,0.9606 1.64777,1.471 0.58333,0.3561 0.65627,0.4284 0.94885,0.9408 0.72181,1.2643 1.1422,2.6993 1.14205,3.8985 -1.5e-4,0.8729 -0.10412,1.3492 -0.4638,2.1238 -0.24725,0.5325 -0.39348,0.7286 -0.94341,1.265 -0.94733,0.9242 -2.02394,1.4224 -3.09405,1.4321 -0.66429,0.01 -0.8208,-0.098 -1.13306,-0.75 -0.69516,-1.4522 -2.38192,-2.4458 -4.56633,-2.6899 -2.34618,-0.2622 -4.90231,0.6576 -6.91842,2.4895 -1.00987,0.9176 -1.92797,2.1047 -2.37695,3.0733 -0.0984,0.2123 -0.20581,0.3693 -0.23872,0.349 -0.0775,-0.048 -0.61479,-1.7023 -0.7717,-2.3761 -0.38004,-1.6322 -0.51024,-2.7811 -0.51024,-4.5021 0,-2.1844 0.25691,-3.8616 0.89327,-5.8315 0.9567,-2.9615 2.42844,-5.3544 4.67506,-7.601 2.24661,-2.2466 4.63946,-3.7184 7.60097,-4.6751 1.96989,-0.6363 3.64707,-0.8932 5.83152,-0.8932 2.18445,0 3.86163,0.2569 5.83152,0.8932 2.96151,0.9567 5.35436,2.4285 7.60097,4.6751 2.24662,2.2466 3.71836,4.6395 4.67506,7.601 0.63637,1.9699 0.89328,3.6471 0.89328,5.8315 0,2.1844 -0.25691,3.8616 -0.89328,5.8315 -0.9567,2.9615 -2.42844,5.3544 -4.67506,7.601 -3.0622,3.0622 -6.70101,4.8621 -10.97682,5.4294 -0.81905,0.1087 -2.7982,0.1897 -3.49747,0.1432 z"
         id="path15914-2" />
      <path
         style="fill:#fd868c;stroke-width:0.999999"
         d="m 170.71511,177.7468 c -0.25584,-0.6015 -0.45954,-1.2932 -0.59173,-2.0091 -0.16528,-0.8951 -0.1137,-2.3502 0.11461,-3.2336 0.52017,-2.0128 2.21595,-4.3177 4.12398,-5.6053 0.53888,-0.3637 0.61416,-0.3805 0.23208,-0.052 -1.33042,1.1443 -2.67658,2.83 -3.38645,4.2405 -0.57483,1.1422 -0.68513,1.5505 -0.72451,2.682 -0.0412,1.1831 0.0469,1.8561 0.36407,2.7809 0.19718,0.575 0.21682,0.6995 0.14673,0.9302 -0.0445,0.1465 -0.0898,0.3501 -0.10073,0.4524 -0.0167,0.1567 -0.0447,0.1275 -0.17805,-0.1861 z m 16.15726,-0.4521 c -0.12279,-0.017 -0.53811,-0.068 -0.92294,-0.1127 -1.76876,-0.2055 -2.86582,-0.8904 -3.50523,-2.1885 -0.4019,-0.8159 -0.55391,-1.6225 -0.48972,-2.5987 0.13013,-1.9787 0.13375,-2.1628 0.0499,-2.5374 -0.0478,-0.2138 -0.18457,-0.5426 -0.30384,-0.7307 -0.24358,-0.384 -0.20226,-0.4617 0.20498,-0.3853 0.34006,0.064 1.54833,0.6255 1.99729,0.9285 0.57519,0.3882 0.89561,0.5207 1.46249,0.605 0.74308,0.1106 1.68695,-0.054 2.65162,-0.4613 1.09786,-0.464 1.73203,-0.6528 2.49473,-0.7427 0.73978,-0.087 0.9992,-0.071 3.83931,0.2348 2.20776,0.238 3.81474,0.1043 5.41362,-0.4505 0.33766,-0.1172 0.61392,-0.1982 0.61392,-0.18 0,0.099 -0.78853,1.573 -1.13756,2.126 -2.21122,3.5033 -5.46936,5.7368 -9.26506,6.3513 -0.68702,0.1112 -2.67624,0.2023 -3.10353,0.1422 z m 15.2908,-16.012 c -0.003,-1.2939 -0.26975,-3.087 -0.64505,-4.3346 -0.64839,-2.1553 -1.76544,-3.5089 -3.34805,-4.057 -0.48247,-0.1671 -0.49354,-0.1761 -0.22313,-0.1802 0.43088,-0.01 1.35853,0.3363 1.85931,0.6873 1.56818,1.0992 2.32559,3.2356 2.41267,6.8055 0.0222,0.9107 0.019,1.6557 -0.007,1.6557 -0.0261,0 -0.048,-0.2595 -0.0487,-0.5767 z m -16.10013,-5.143 c -0.82961,-1.2964 -1.30602,-3.9304 -1.22055,-6.7484 0.0346,-1.1406 0.0922,-1.4473 0.27165,-1.4473 0.0257,0 0.0472,0.9962 0.0478,2.2138 0.001,1.9429 0.0211,2.3277 0.1643,3.144 0.18982,1.0822 0.45874,1.9577 0.77341,2.5179 0.28767,0.5121 0.2571,0.779 -0.0367,0.32 z"
         id="path15912-7" />
      <path
         style="fill:#fd7c83;stroke-width:0.999999"
         d="m 186.78077,177.286 c 0.0724,-0.019 0.17286,-0.018 0.22324,0 0.0504,0.02 -0.009,0.036 -0.13164,0.034 -0.12279,0 -0.16401,-0.018 -0.0916,-0.037 z m 1.89701,0 c 0.0926,-0.018 0.22651,-0.017 0.29765,0 0.0711,0.019 -0.005,0.033 -0.1683,0.032 -0.16371,-8e-4 -0.22192,-0.016 -0.12935,-0.034 z m -2.67978,-0.071 c 0.0512,-0.021 0.13488,-0.021 0.18604,0 0.0512,0.021 0.009,0.037 -0.093,0.037 -0.10232,0 -0.14418,-0.017 -0.093,-0.037 z m 3.57653,0 c 0.0537,-0.022 0.1179,-0.019 0.14262,0.01 0.0247,0.025 -0.0192,0.042 -0.0977,0.039 -0.0867,0 -0.10432,-0.021 -0.045,-0.045 z m -4.09278,-0.074 c 0.0537,-0.022 0.1179,-0.019 0.14263,0.01 0.0247,0.025 -0.0192,0.042 -0.0977,0.039 -0.0867,0 -0.10432,-0.021 -0.045,-0.045 z m 4.53461,0 c 0.0512,-0.021 0.13488,-0.021 0.18604,0 0.0512,0.021 0.009,0.037 -0.093,0.037 -0.10232,0 -0.14418,-0.017 -0.093,-0.037 z m -7.09262,-1.3088 -0.21856,-0.2419 0.24184,0.2186 c 0.22544,0.2037 0.27605,0.2651 0.21857,0.2651 -0.0128,0 -0.12164,-0.1088 -0.24185,-0.2418 z m 10.60869,0.2126 c 0,-0.016 0.052,-0.049 0.11548,-0.074 0.0662,-0.025 0.0961,-0.013 0.07,0.029 -0.0437,0.071 -0.1855,0.1045 -0.1855,0.044 z m -22.98808,-0.5351 c 0.004,-0.087 0.0212,-0.1043 0.045,-0.045 0.0215,0.054 0.0188,0.1179 -0.006,0.1426 -0.0247,0.025 -0.0423,-0.019 -0.0391,-0.098 z m -0.0658,-0.5891 c 0.002,-0.1228 0.0182,-0.164 0.0371,-0.092 0.0189,0.072 0.0176,0.1729 -0.003,0.2232 -0.0204,0.05 -0.0358,-0.01 -0.0343,-0.1316 z m 25.06304,-0.065 c 0,-0.015 0.0586,-0.074 0.13022,-0.1302 0.11803,-0.093 0.12066,-0.09 0.0281,0.028 -0.0972,0.1239 -0.15832,0.1633 -0.15832,0.1021 z m 0.37207,-0.2977 c 0,-0.015 0.0586,-0.074 0.13022,-0.1302 0.11803,-0.092 0.12066,-0.09 0.0281,0.028 -0.0972,0.124 -0.15832,0.1634 -0.15832,0.1021 z m 0.37207,-0.2928 c 0,-0.013 0.10883,-0.1216 0.24184,-0.2418 l 0.24185,-0.2186 -0.21856,0.2418 c -0.20373,0.2255 -0.26513,0.2761 -0.26513,0.2186 z m -14.28163,-0.3178 c 0.004,-0.087 0.0212,-0.1043 0.045,-0.045 0.0215,0.054 0.0189,0.1179 -0.006,0.1426 -0.0247,0.025 -0.0423,-0.019 -0.0391,-0.098 z m -0.0744,-0.4465 c 0.004,-0.087 0.0212,-0.1043 0.0449,-0.045 0.0215,0.054 0.0189,0.1179 -0.006,0.1426 -0.0247,0.025 -0.0423,-0.019 -0.0391,-0.098 z m -11.4539,-0.3286 c 0,-0.1023 0.0169,-0.1442 0.0375,-0.093 0.0206,0.051 0.0206,0.1348 0,0.186 -0.0207,0.051 -0.0375,0.01 -0.0375,-0.093 z m 27.2238,-0.3349 c 0.13884,-0.1432 0.26918,-0.2604 0.28965,-0.2604 0.0205,0 -0.0764,0.1172 -0.21523,0.2604 -0.13884,0.1433 -0.26918,0.2605 -0.28965,0.2605 -0.0205,0 0.0764,-0.1172 0.21523,-0.2605 z m -15.83143,-0.2976 c 8.3e-4,-0.1638 0.0161,-0.222 0.0339,-0.1294 0.0178,0.093 0.0171,0.2265 -0.002,0.2977 -0.0186,0.071 -0.0332,0 -0.0324,-0.1683 z m 16.42675,-0.4374 c 0,-0.015 0.0586,-0.074 0.13022,-0.1302 0.11803,-0.093 0.12066,-0.09 0.0281,0.028 -0.0972,0.1239 -0.15832,0.1633 -0.15832,0.1021 z m -16.35935,-0.2696 c 0,-0.1023 0.0169,-0.1442 0.0375,-0.093 0.0207,0.051 0.0207,0.1349 0,0.186 -0.0206,0.051 -0.0375,0.01 -0.0375,-0.093 z m 0.0744,-0.5209 c 0,-0.1023 0.0169,-0.1442 0.0375,-0.093 0.0206,0.051 0.0206,0.1349 0,0.186 -0.0206,0.051 -0.0375,0.01 -0.0375,-0.093 z m 3.69036,-1.0199 c 0.0921,-0.018 0.24277,-0.018 0.33486,0 0.0921,0.018 0.0167,0.032 -0.16743,0.032 -0.18418,0 -0.25952,-0.014 -0.16743,-0.032 z m 10.12031,-0.8953 c 0.21487,-0.015 0.56648,-0.015 0.78135,0 0.21487,0.015 0.0391,0.027 -0.39068,0.027 -0.42974,0 -0.60554,-0.012 -0.39067,-0.027 z m -1.11621,-0.069 c 0.0512,-0.021 0.13487,-0.021 0.18603,0 0.0512,0.021 0.009,0.037 -0.093,0.037 -0.10231,0 -0.14417,-0.017 -0.093,-0.037 z m 2.79194,0 c 0.0724,-0.019 0.17286,-0.018 0.22324,0 0.0504,0.02 -0.009,0.036 -0.13164,0.034 -0.12278,0 -0.164,-0.018 -0.0916,-0.037 z m -25.58125,-0.1717 c 0.0741,-0.082 0.15143,-0.1488 0.17189,-0.1488 0.0205,0 -0.0234,0.067 -0.0975,0.1488 -0.0741,0.082 -0.15143,0.1488 -0.17189,0.1488 -0.0205,0 0.0234,-0.067 0.0975,-0.1488 z m 22.08379,0.097 c 0.0724,-0.019 0.17286,-0.018 0.22324,0 0.0504,0.02 -0.009,0.036 -0.13164,0.034 -0.12278,0 -0.164,-0.018 -0.0916,-0.037 z m -4.4244,-0.074 c 0.0537,-0.022 0.1179,-0.019 0.14262,0.01 0.0247,0.025 -0.0192,0.042 -0.0977,0.039 -0.0867,0 -0.10432,-0.021 -0.045,-0.045 z m 3.75467,-7e-4 c 0.0724,-0.019 0.17286,-0.018 0.22325,0 0.0504,0.02 -0.009,0.036 -0.13165,0.034 -0.12278,0 -0.164,-0.018 -0.0916,-0.037 z m -0.63393,-0.072 c 0.0512,-0.021 0.13487,-0.021 0.18603,0 0.0512,0.021 0.009,0.038 -0.093,0.038 -0.10231,0 -0.14417,-0.017 -0.093,-0.038 z m -2.1938,-0.077 c 0.0724,-0.019 0.17286,-0.018 0.22324,0 0.0504,0.02 -0.009,0.036 -0.13164,0.034 -0.12278,0 -0.164,-0.018 -0.0916,-0.037 z m 1.37611,0 c 0.0926,-0.018 0.22651,-0.017 0.29766,0 0.0711,0.019 -0.005,0.033 -0.1683,0.032 -0.16371,-8e-4 -0.22192,-0.016 -0.12936,-0.034 z m -19.32992,-0.05 c 0,-0.015 0.0586,-0.074 0.13022,-0.1302 0.11803,-0.093 0.12066,-0.09 0.0281,0.028 -0.0972,0.1239 -0.15832,0.1633 -0.15832,0.1021 z m -0.22324,-0.2977 c 0,-0.015 0.0586,-0.074 0.13022,-0.1302 0.11803,-0.093 0.12066,-0.09 0.0281,0.028 -0.0972,0.124 -0.15832,0.1634 -0.15832,0.1021 z m 0.63252,-0.1951 c 0.0741,-0.082 0.15143,-0.1488 0.17189,-0.1488 0.0205,0 -0.0234,0.067 -0.0975,0.1488 -0.0741,0.082 -0.15143,0.1488 -0.17189,0.1488 -0.0205,0 0.0234,-0.067 0.0975,-0.1488 z m 0.81855,-0.893 c 0.20156,-0.2046 0.38322,-0.3721 0.40368,-0.3721 0.0205,0 -0.1277,0.1675 -0.32926,0.3721 -0.20157,0.2047 -0.38322,0.3721 -0.40369,0.3721 -0.0205,0 0.12771,-0.1674 0.32927,-0.3721 z m -0.11162,-0.1769 c 0,-0.015 0.0586,-0.074 0.13022,-0.1302 0.11803,-0.093 0.12066,-0.09 0.0281,0.028 -0.0972,0.1239 -0.15832,0.1633 -0.15832,0.1021 z m 0.91777,-0.592 c 0,-0.055 0.0441,-0.099 0.098,-0.099 0.0733,0 0.0772,0.025 0.0157,0.099 -0.0453,0.055 -0.0894,0.099 -0.098,0.099 -0.009,0 -0.0157,-0.045 -0.0157,-0.099 z m 0.34727,-0.2649 c 0,-0.037 0.055,-0.088 0.12215,-0.1133 0.10213,-0.039 0.10673,-0.028 0.0281,0.066 -0.10716,0.1291 -0.15024,0.1426 -0.15024,0.047 z m 27.25005,-4.51 c 0.002,-0.1228 0.0182,-0.164 0.0371,-0.092 0.0189,0.072 0.0176,0.1728 -0.003,0.2232 -0.0204,0.05 -0.0358,-0.01 -0.0343,-0.1316 z m -0.0744,-1.4139 c 0.002,-0.1228 0.0182,-0.164 0.0371,-0.092 0.0189,0.072 0.0176,0.1729 -0.003,0.2232 -0.0204,0.05 -0.0358,-0.01 -0.0343,-0.1316 z m -0.0744,-0.8186 c 0.002,-0.1227 0.0182,-0.164 0.0371,-0.092 0.0189,0.072 0.0176,0.1729 -0.003,0.2233 -0.0204,0.05 -0.0358,-0.01 -0.0343,-0.1317 z m -0.0831,-0.6759 c 0.004,-0.087 0.0212,-0.1043 0.045,-0.045 0.0215,0.054 0.0188,0.1179 -0.006,0.1426 -0.0247,0.025 -0.0423,-0.019 -0.0391,-0.098 z m 0.23463,-0.1798 c 0,-0.1433 0.0153,-0.2019 0.034,-0.1302 0.0187,0.072 0.0187,0.1888 0,0.2604 -0.0187,0.072 -0.034,0.013 -0.034,-0.1302 z m -0.30904,-0.2667 c 0.004,-0.087 0.0212,-0.1043 0.0449,-0.045 0.0215,0.054 0.0189,0.1179 -0.006,0.1426 -0.0247,0.025 -0.0423,-0.019 -0.0391,-0.098 z m -0.0744,-0.4464 c 0.004,-0.087 0.0212,-0.1044 0.045,-0.045 0.0215,0.054 0.0189,0.1179 -0.006,0.1426 -0.0247,0.025 -0.0423,-0.019 -0.0391,-0.098 z m 0.30353,-0.031 c 0,-0.1023 0.0169,-0.1441 0.0375,-0.093 0.0206,0.051 0.0206,0.1349 0,0.1861 -0.0206,0.051 -0.0375,0.01 -0.0375,-0.093 z m -0.0803,-0.4898 c 0.004,-0.087 0.0212,-0.1044 0.045,-0.045 0.0215,0.054 0.0189,0.1179 -0.006,0.1426 -0.0247,0.025 -0.0423,-0.019 -0.0391,-0.098 z m -0.0744,-0.4465 c 0.004,-0.087 0.0212,-0.1044 0.045,-0.045 0.0215,0.054 0.0188,0.1179 -0.006,0.1426 -0.0247,0.025 -0.0423,-0.019 -0.0391,-0.098 z m -15.62695,-0.893 c 0.004,-0.087 0.0212,-0.1043 0.0449,-0.045 0.0215,0.054 0.0189,0.1179 -0.006,0.1427 -0.0247,0.025 -0.0423,-0.019 -0.0391,-0.098 z m 13.82565,-2.096 c -0.0926,-0.118 -0.0899,-0.1207 0.0281,-0.028 0.12396,0.097 0.16338,0.1583 0.10213,0.1583 -0.0154,0 -0.0741,-0.059 -0.13022,-0.1302 z m 0.48611,-0.1116 -0.14176,-0.1674 0.16743,0.1417 c 0.15735,0.1332 0.20131,0.1931 0.14176,0.1931 -0.0141,0 -0.0895,-0.075 -0.16743,-0.1674 z m -15.20473,-0.2481 c 0.004,-0.087 0.0212,-0.1043 0.045,-0.045 0.0215,0.054 0.0189,0.1179 -0.006,0.1426 -0.0247,0.025 -0.0423,-0.019 -0.0391,-0.098 z m 14.08852,-0.2728 -0.14176,-0.1674 0.16743,0.1417 c 0.15735,0.1332 0.20131,0.1931 0.14176,0.1931 -0.0141,0 -0.0895,-0.075 -0.16743,-0.1674 z m -14.46059,-0.3225 c 0.004,-0.087 0.0212,-0.1043 0.045,-0.045 0.0215,0.054 0.0189,0.1179 -0.006,0.1426 -0.0247,0.025 -0.0423,-0.019 -0.0391,-0.098 z m 12.45336,-0.634 c -0.10167,-0.04 -0.0512,-0.058 0.17255,-0.062 0.17394,0 0.31626,0.01 0.31626,0.023 0,0.063 -0.35435,0.091 -0.48881,0.038 z m -12.2959,-0.2527 c 0.002,-0.1228 0.0182,-0.164 0.0371,-0.092 0.0189,0.072 0.0176,0.1728 -0.003,0.2232 -0.0204,0.05 -0.0358,-0.01 -0.0343,-0.1316 z m -0.30042,-0.1117 c 0,-0.1023 0.0169,-0.1441 0.0375,-0.093 0.0206,0.051 0.0206,0.1349 0,0.1861 -0.0207,0.051 -0.0375,0.01 -0.0375,-0.093 z m -0.0659,-0.7441 c 0,-0.1842 0.0145,-0.2595 0.0322,-0.1674 0.0177,0.092 0.0177,0.2427 0,0.3348 -0.0177,0.092 -0.0322,0.017 -0.0322,-0.1674 z m 0.30044,-0.1116 c 4.5e-4,-0.2456 0.0143,-0.3371 0.0309,-0.2033 0.0166,0.1337 0.0162,0.3346 -7.6e-4,0.4465 -0.017,0.1118 -0.0305,0 -0.0301,-0.2432 z m -0.002,-2.5301 c 5.9e-4,-0.2046 0.015,-0.2795 0.0321,-0.1664 0.0171,0.1131 0.0166,0.2805 -0.001,0.3721 -0.0177,0.091 -0.0317,0 -0.0311,-0.2057 z m -0.30018,-0.5209 c 8.3e-4,-0.1637 0.0161,-0.2219 0.0339,-0.1294 0.0178,0.093 0.0171,0.2266 -0.002,0.2977 -0.0186,0.071 -0.0332,0 -0.0324,-0.1683 z m 0.33509,-0.3721 c -0.0195,-0.1023 -0.007,-0.186 0.0285,-0.186 0.0353,0 0.0641,0.084 0.0641,0.186 0,0.1023 -0.0128,0.1861 -0.0285,0.1861 -0.0157,0 -0.0445,-0.084 -0.0641,-0.1861 z"
         id="path15910-6" />
      <path
         style="fill:#f99f54;stroke-width:0.999999"
         d="m 186.74679,178.8494 c 0.0537,-0.021 0.1179,-0.019 0.14263,0.01 0.0247,0.025 -0.0192,0.042 -0.0977,0.039 -0.0867,0 -0.10432,-0.021 -0.045,-0.045 z m 2.15336,0 c 0.0512,-0.021 0.13488,-0.021 0.18604,0 0.0512,0.021 0.009,0.038 -0.093,0.038 -0.10232,0 -0.14418,-0.017 -0.093,-0.038 z m -2.8975,-0.076 c 0.0537,-0.021 0.1179,-0.019 0.14263,0.01 0.0247,0.025 -0.0192,0.042 -0.0977,0.039 -0.0867,0 -0.10432,-0.021 -0.045,-0.045 z m 3.72071,0 c 0.0537,-0.021 0.1179,-0.019 0.14262,0.01 0.0247,0.025 -0.0192,0.042 -0.0977,0.039 -0.0867,0 -0.10432,-0.021 -0.0449,-0.045 z m -8.10668,-2.0886 c -0.0926,-0.118 -0.0899,-0.1206 0.0281,-0.028 0.0716,0.056 0.13022,0.1148 0.13022,0.1303 0,0.061 -0.0611,0.022 -0.15832,-0.1022 z m -6.37837,-0.3162 c 0,-0.1023 0.0169,-0.1442 0.0375,-0.093 0.0206,0.051 0.0206,0.1348 0,0.186 -0.0206,0.051 -0.0375,0.01 -0.0375,-0.093 z m 21.9404,-0.8467 c 0,-0.015 0.0586,-0.074 0.13023,-0.1302 0.11802,-0.093 0.12066,-0.09 0.0281,0.028 -0.0972,0.124 -0.15833,0.1634 -0.15833,0.1021 z m 0.96739,-0.9021 c 0.26366,-0.266 0.49613,-0.4836 0.5166,-0.4836 0.0205,0 -0.17852,0.2176 -0.44219,0.4836 -0.26366,0.2661 -0.49613,0.4837 -0.5166,0.4837 -0.0205,0 0.17852,-0.2176 0.44219,-0.4837 z m -23.65193,-0.4836 c 0,-0.1024 0.0169,-0.1442 0.0375,-0.093 0.0206,0.051 0.0206,0.1349 0,0.1861 -0.0206,0.051 -0.0375,0.01 -0.0375,-0.093 z m 5.94725,-0.1179 c 0.004,-0.087 0.0212,-0.1043 0.045,-0.045 0.0215,0.054 0.0189,0.1179 -0.006,0.1426 -0.0247,0.025 -0.0423,-0.019 -0.0391,-0.098 z m 18.52323,-0.2823 c 0,-0.015 0.0586,-0.074 0.13023,-0.1302 0.11802,-0.093 0.12065,-0.09 0.0281,0.028 -0.0972,0.1239 -0.15832,0.1633 -0.15832,0.1021 z m -18.58901,-0.2324 c 0.002,-0.1227 0.0182,-0.164 0.0371,-0.092 0.0189,0.072 0.0176,0.1729 -0.003,0.2233 -0.0204,0.05 -0.0358,-0.01 -0.0343,-0.1317 z m -5.96175,-0.155 c 0.004,-0.087 0.0212,-0.1043 0.0449,-0.045 0.0215,0.054 0.0189,0.1179 -0.006,0.1426 -0.0247,0.025 -0.0423,-0.019 -0.0391,-0.098 z m 5.959,-1.5193 c 0,-0.1023 0.0169,-0.1442 0.0375,-0.093 0.0206,0.051 0.0206,0.1349 0,0.186 -0.0206,0.051 -0.0375,0.01 -0.0375,-0.093 z m 0.0685,-0.4899 c 0.004,-0.087 0.0212,-0.1043 0.045,-0.045 0.0215,0.054 0.0189,0.1179 -0.006,0.1426 -0.0247,0.025 -0.0423,-0.019 -0.0391,-0.098 z m 0.0803,-0.5519 c 0,-0.1023 0.0169,-0.1442 0.0375,-0.093 0.0206,0.051 0.0206,0.1349 0,0.186 -0.0207,0.051 -0.0375,0.01 -0.0375,-0.093 z m -4.92307,0.046 c 0,-0.015 0.0586,-0.074 0.13022,-0.1302 0.11803,-0.092 0.12066,-0.09 0.0281,0.028 -0.0972,0.124 -0.15832,0.1634 -0.15832,0.1021 z m 4.56939,-1.1067 -0.14176,-0.1674 0.16743,0.1418 c 0.15735,0.1332 0.20131,0.1931 0.14176,0.1931 -0.0141,0 -0.0895,-0.075 -0.16743,-0.1675 z m -8.06686,-0.828 c 0,-0.015 0.0586,-0.074 0.13023,-0.1302 0.11802,-0.093 0.12066,-0.09 0.0281,0.028 -0.0972,0.124 -0.15832,0.1634 -0.15832,0.1022 z m 13.455,-0.1716 c 0.0537,-0.022 0.1179,-0.019 0.14263,0.01 0.0247,0.025 -0.0192,0.042 -0.0977,0.039 -0.0867,0 -0.10432,-0.021 -0.045,-0.045 z m 0.40462,-4e-4 c 0.0716,-0.019 0.18883,-0.019 0.26045,0 0.0716,0.019 0.013,0.034 -0.13022,0.034 -0.14325,0 -0.20185,-0.015 -0.13023,-0.034 z m -13.30151,-0.4697 c 0.0741,-0.082 0.15143,-0.1488 0.17189,-0.1488 0.0205,0 -0.0234,0.067 -0.0975,0.1488 -0.0741,0.082 -0.15143,0.1489 -0.17189,0.1489 -0.0205,0 0.0234,-0.067 0.0975,-0.1489 z m 15.66416,-0.4001 c 0,-0.015 0.0586,-0.074 0.13023,-0.1302 0.11802,-0.093 0.12065,-0.09 0.0281,0.028 -0.0972,0.1239 -0.15832,0.1633 -0.15832,0.1021 z m -14.88281,-0.2977 c 0,-0.015 0.0586,-0.074 0.13022,-0.1302 0.11803,-0.093 0.12066,-0.09 0.0281,0.028 -0.0972,0.124 -0.15832,0.1634 -0.15832,0.1021 z m 15.54943,-0.2881 c 0.30837,-0.3286 0.37518,-0.3877 0.37518,-0.3318 0,0.012 -0.15906,0.171 -0.35347,0.3535 l -0.35347,0.3317 z m -4.91385,-0.1861 -0.18041,-0.2046 0.20464,0.1804 c 0.19127,0.1686 0.23877,0.2289 0.18041,0.2289 -0.0133,0 -0.10542,-0.092 -0.20464,-0.2047 z m -0.45035,-0.4465 c -0.0926,-0.118 -0.0899,-0.1206 0.0281,-0.028 0.0716,0.056 0.13022,0.1148 0.13022,0.1303 0,0.061 -0.0611,0.022 -0.15832,-0.1022 z m -6.18083,-1.1856 c 0.0537,-0.022 0.1179,-0.019 0.14263,0.01 0.0247,0.025 -0.0192,0.042 -0.0977,0.039 -0.0867,0 -0.10432,-0.021 -0.045,-0.045 z m 0.37207,-0.074 c 0.0537,-0.022 0.1179,-0.019 0.14263,0.01 0.0247,0.025 -0.0192,0.042 -0.0977,0.039 -0.0867,0 -0.10432,-0.021 -0.045,-0.045 z m 2.97657,0 c 0.0537,-0.022 0.1179,-0.019 0.14262,0.01 0.0247,0.025 -0.0192,0.042 -0.0977,0.039 -0.0867,0 -0.10432,-0.021 -0.045,-0.045 z m -2.53008,-0.074 c 0.0537,-0.022 0.1179,-0.019 0.14263,0.01 0.0247,0.025 -0.0192,0.042 -0.0977,0.039 -0.0867,0 -0.10432,-0.021 -0.045,-0.045 z m 2.08359,0 c 0.0537,-0.022 0.1179,-0.019 0.14263,0.01 0.0247,0.025 -0.0192,0.042 -0.0977,0.039 -0.0867,0 -0.10432,-0.021 -0.045,-0.045 z m -1.15807,-0.077 c 0.11256,-0.017 0.29673,-0.017 0.40928,0 0.11255,0.017 0.0205,0.031 -0.20464,0.031 -0.2251,0 -0.31719,-0.014 -0.20464,-0.031 z m 11.07497,-0.3622 c 0.004,-0.087 0.0212,-0.1043 0.045,-0.045 0.0215,0.054 0.0189,0.1179 -0.006,0.1427 -0.0247,0.025 -0.0423,-0.019 -0.0391,-0.098 z m 0.0888,-0.6263 c 0,-0.1842 0.0145,-0.2595 0.0322,-0.1674 0.0177,0.092 0.0177,0.2427 0,0.3348 -0.0177,0.092 -0.0322,0.017 -0.0322,-0.1674 z m 0,-0.6697 c 0,-0.1842 0.0145,-0.2596 0.0322,-0.1675 0.0177,0.092 0.0177,0.2428 0,0.3349 -0.0177,0.092 -0.0322,0.017 -0.0322,-0.1674 z m 13.1569,-0.1923 c 0.004,-0.087 0.0212,-0.1043 0.0449,-0.045 0.0215,0.054 0.0189,0.1179 -0.006,0.1426 -0.0247,0.025 -0.0423,-0.019 -0.0391,-0.098 z M 190.26993,162.9 c 0,-0.1023 0.0169,-0.1441 0.0375,-0.093 0.0206,0.051 0.0206,0.1349 0,0.1861 -0.0206,0.051 -0.0375,0.01 -0.0375,-0.093 z m 13.31424,-0.1922 c 0.004,-0.087 0.0212,-0.1043 0.045,-0.045 0.0215,0.054 0.0188,0.1179 -0.006,0.1427 -0.0247,0.025 -0.0423,-0.019 -0.0391,-0.098 z m 0.0803,-1.296 c 0,-0.1024 0.0169,-0.1442 0.0375,-0.093 0.0206,0.051 0.0206,0.1349 0,0.1861 -0.0206,0.051 -0.0375,0.01 -0.0375,-0.093 z m -0.0744,-1.4883 c 0,-0.1023 0.0169,-0.1442 0.0375,-0.093 0.0206,0.051 0.0206,0.1348 0,0.186 -0.0206,0.051 -0.0375,0.01 -0.0375,-0.093 z m -0.0803,-0.7132 c 0.004,-0.087 0.0212,-0.1043 0.0449,-0.045 0.0215,0.054 0.0189,0.1179 -0.006,0.1426 -0.0247,0.025 -0.0423,-0.019 -0.0391,-0.098 z m -16.37697,-0.9611 c -0.18076,-0.1842 -0.3119,-0.3349 -0.29144,-0.3349 0.0205,0 0.1851,0.1507 0.36585,0.3349 0.18075,0.1841 0.3119,0.3348 0.29144,0.3348 -0.0205,0 -0.1851,-0.1507 -0.36585,-0.3348 z m 3.79511,-2.9675 c 0,-0.015 0.0586,-0.074 0.13023,-0.1302 0.11802,-0.093 0.12066,-0.09 0.0281,0.028 -0.0972,0.1239 -0.15832,0.1633 -0.15832,0.1021 z m 0.40928,-0.344 c 0.0741,-0.082 0.15143,-0.1488 0.1719,-0.1488 0.0205,0 -0.0234,0.067 -0.0975,0.1488 -0.0741,0.082 -0.15143,0.1489 -0.17189,0.1489 -0.0205,0 0.0234,-0.067 0.0975,-0.1489 z m 0.44649,-0.372 c 0.0741,-0.082 0.15143,-0.1489 0.17189,-0.1489 0.0205,0 -0.0234,0.067 -0.0975,0.1489 -0.0741,0.082 -0.15143,0.1488 -0.1719,0.1488 -0.0205,0 0.0234,-0.067 0.0975,-0.1488 z m 9.10623,-0.7256 c -0.0926,-0.118 -0.0899,-0.1206 0.0281,-0.028 0.12396,0.097 0.16338,0.1583 0.10213,0.1583 -0.0154,0 -0.0741,-0.059 -0.13022,-0.1302 z m -15.98366,-0.3596 c 0.004,-0.087 0.0212,-0.1044 0.045,-0.045 0.0215,0.054 0.0189,0.1179 -0.006,0.1426 -0.0247,0.025 -0.0423,-0.019 -0.0391,-0.098 z m -0.0744,-0.4465 c 0.004,-0.087 0.0212,-0.1044 0.045,-0.045 0.0215,0.054 0.0189,0.1179 -0.006,0.1426 -0.0247,0.025 -0.0423,-0.019 -0.0391,-0.098 z m -0.0744,-0.4465 c 0.004,-0.087 0.0212,-0.1043 0.045,-0.045 0.0215,0.054 0.0189,0.1179 -0.006,0.1427 -0.0247,0.025 -0.0423,-0.019 -0.0391,-0.098 z m 11.2167,-0.082 c 0.0537,-0.021 0.1179,-0.019 0.14262,0.01 0.0247,0.025 -0.0192,0.042 -0.0977,0.039 -0.0867,0 -0.10433,-0.021 -0.045,-0.045 z m 1.78128,0 c 0.0512,-0.021 0.13488,-0.021 0.18604,0 0.0512,0.021 0.009,0.037 -0.093,0.037 -0.10232,0 -0.14418,-0.017 -0.093,-0.037 z m -1.00356,-0.079 c 0.11311,-0.017 0.28054,-0.017 0.37207,0 0.0915,0.018 -0.001,0.032 -0.20566,0.031 -0.20464,-6e-4 -0.27953,-0.015 -0.16641,-0.032 z m -12.05594,-0.5047 c 8.2e-4,-0.1638 0.0161,-0.222 0.0339,-0.1294 0.0178,0.093 0.0171,0.2265 -0.001,0.2977 -0.0186,0.071 -0.0332,0 -0.0324,-0.1683 z m -0.0653,-1.4883 c 1.5e-4,-0.4502 0.0124,-0.6248 0.0272,-0.388 0.0148,0.2368 0.0147,0.6052 -3e-4,0.8186 -0.015,0.2134 -0.0271,0.02 -0.0269,-0.4306 z m 4.1511,0.186 c 0,-0.1023 0.0169,-0.1442 0.0375,-0.093 0.0206,0.051 0.0206,0.1349 0,0.186 -0.0206,0.051 -0.0375,0.01 -0.0375,-0.093 z m -0.006,-1.3828 c 0.004,-0.087 0.0212,-0.1044 0.045,-0.045 0.0215,0.054 0.0188,0.1179 -0.006,0.1426 -0.0247,0.025 -0.0423,-0.019 -0.0391,-0.098 z m -4.08414,-0.4403 c 0.002,-0.1228 0.0182,-0.164 0.0371,-0.092 0.0189,0.072 0.0176,0.1728 -0.003,0.2232 -0.0204,0.05 -0.0358,-0.01 -0.0343,-0.1316 z m 0.13432,-0.6606 c 0,-0.015 0.0586,-0.074 0.13022,-0.1303 0.11803,-0.093 0.12066,-0.09 0.0281,0.028 -0.0972,0.124 -0.15832,0.1634 -0.15832,0.1022 z m 4.00887,-0.1022 c -0.0926,-0.118 -0.0899,-0.1206 0.0281,-0.028 0.12396,0.097 0.16338,0.1583 0.10213,0.1583 -0.0155,0 -0.0741,-0.059 -0.13022,-0.1302 z m -1.19509,-0.4415 c 0.0537,-0.022 0.1179,-0.019 0.14263,0.01 0.0247,0.025 -0.0192,0.042 -0.0977,0.039 -0.0867,0 -0.10432,-0.021 -0.045,-0.045 z m -1.37989,-0.075 c 0.0724,-0.019 0.17286,-0.018 0.22324,0 0.0504,0.02 -0.009,0.036 -0.13164,0.034 -0.12278,0 -0.16401,-0.018 -0.0916,-0.037 z m 0.59389,0 c 0.11255,-0.017 0.29673,-0.017 0.40928,0 0.11255,0.017 0.0205,0.031 -0.20464,0.031 -0.2251,0 -0.31719,-0.014 -0.20464,-0.031 z"
         id="path15908-9" />
      <path
         style="fill:#fd5a61;stroke-width:0.999999"
         d="m 187.11555,178.8463 c 0.13374,-0.016 0.33466,-0.016 0.44648,8e-4 0.11182,0.017 0.002,0.031 -0.24318,0.03 -0.24557,-4e-4 -0.33705,-0.014 -0.2033,-0.031 z m 1.45115,0 c 0.0724,-0.019 0.17286,-0.018 0.22325,0 0.0504,0.02 -0.009,0.036 -0.13165,0.034 -0.12278,0 -0.164,-0.018 -0.0916,-0.037 z m 0.93341,-0.074 c 0.0537,-0.021 0.1179,-0.019 0.14263,0.01 0.0247,0.025 -0.0192,0.042 -0.0977,0.039 -0.0867,0 -0.10432,-0.021 -0.045,-0.045 z m -18.20574,-0.4701 c 0,-0.1023 0.0169,-0.1441 0.0375,-0.093 0.0207,0.051 0.0207,0.1349 0,0.1861 -0.0206,0.051 -0.0375,0.01 -0.0375,-0.093 z m 14.79665,-0.079 c -1.9138,-0.155 -3.23302,-0.6803 -4.22522,-1.6823 -0.4884,-0.4933 -0.53453,-0.4776 -0.14642,0.05 0.0753,0.1023 0.32791,0.3843 0.56136,0.6266 0.36148,0.3752 0.38106,0.4083 0.13202,0.2232 -0.41163,-0.3058 -1.02743,-1.0744 -1.34476,-1.6783 -0.58073,-1.1051 -0.823,-2.7955 -0.60686,-4.2341 0.0648,-0.431 0.097,-0.8632 0.0716,-0.9604 -0.0322,-0.1233 -0.0202,-0.1605 0.0399,-0.1234 0.13172,0.081 0.10805,-0.4449 -0.0334,-0.7431 -0.19788,-0.417 -0.54975,-0.5789 -1.33212,-0.6132 -2.01595,-0.088 -4.18049,1.332 -4.72737,3.1015 -0.15401,0.4984 -0.20296,1.3941 -0.0718,1.313 0.0458,-0.028 0.0744,0.097 0.0744,0.3267 0,0.3622 0.28303,1.4017 0.49304,1.8108 l 0.10404,0.2026 -0.24824,-0.1465 c -0.80389,-0.4743 -2.37272,-0.01 -3.28527,0.9788 -0.22239,0.2402 -0.42128,0.4367 -0.44198,0.4367 -0.0937,0 -0.49505,-1.4702 -0.57219,-2.096 -0.17885,-1.4506 0.0137,-2.539 0.68545,-3.8751 0.81586,-1.6227 2.46754,-3.6072 3.83899,-4.6126 1.27838,-0.9372 3.62492,-1.4434 5.4444,-1.1744 1.99227,0.2944 3.56989,1.2959 4.18917,2.6593 0.28395,0.6251 0.45652,0.7282 1.21188,0.7237 1.06594,-0.01 2.18884,-0.5377 3.13504,-1.4839 1.09566,-1.0957 1.55733,-2.6256 1.29139,-4.2797 -0.17252,-1.0729 -1.0033,-3.071 -1.47166,-3.5394 -0.0979,-0.098 -0.39144,-0.2973 -0.65237,-0.4433 -1.6117,-0.9013 -2.8063,-3.0085 -3.30915,-5.8372 -0.17844,-1.0038 -0.27069,-3.5346 -0.15878,-4.3559 0.0593,-0.435 0.0726,-0.2385 0.0807,1.1906 0.0129,2.266 0.20824,3.6536 0.72166,5.1267 0.20275,0.5817 0.46358,1.0578 0.69356,1.2659 0.2381,0.2155 0.19729,0.026 -0.14157,-0.6571 -0.51389,-1.036 -0.76217,-2.1717 -0.89611,-4.0993 -0.0807,-1.1614 -0.059,-2.591 0.0528,-3.4787 l 0.0446,-0.3542 0.40922,-0.119 c 0.70111,-0.2038 2.04738,-0.1244 2.73047,0.161 l 0.24285,0.1015 -0.0671,0.3941 c -0.0996,0.5851 -0.0936,2.5992 0.0103,3.4078 0.24216,1.886 0.7115,3.2653 1.41323,4.153 0.30199,0.3821 0.4507,0.4775 0.4507,0.2892 0,-0.053 0.0978,-0.2513 0.21742,-0.4399 0.11959,-0.1885 0.19493,-0.3653 0.16744,-0.3928 -0.0275,-0.028 -0.0105,-0.039 0.0378,-0.025 0.0483,0.014 0.13198,-0.03 0.18603,-0.097 0.0541,-0.067 0.38001,-0.3471 0.72435,-0.6222 1.70514,-1.3618 3.16802,-2.0095 4.73956,-2.0983 1.61456,-0.091 3.32559,0.4259 4.22455,1.2768 0.12786,0.121 0.25284,0.2147 0.27773,0.2082 0.0249,-0.01 0.14209,0.095 0.26045,0.2264 l 0.21519,0.2383 -0.25164,-0.2232 c -0.29002,-0.2573 -0.29165,-0.2648 0.11342,0.5209 0.88289,1.7124 1.39281,4.2173 1.39369,6.8461 9.8e-4,2.9058 -0.46739,4.9932 -1.64467,7.3298 -2.58907,5.1386 -6.1932,8.2201 -10.61133,9.0726 -1.36467,0.2634 -2.96393,0.3442 -4.44039,0.2246 z m 3.57351,-0.9956 c 3.85916,-0.5138 7.16234,-2.692 9.50371,-6.2668 0.36351,-0.5551 1.28469,-2.2393 1.28469,-2.3489 0,-0.016 -0.32649,0.08 -0.72553,0.2121 -1.15041,0.3813 -1.73629,0.48 -3.10679,0.5236 -1.06243,0.034 -1.53693,0.01 -2.96265,-0.1535 -1.91894,-0.219 -2.79908,-0.2403 -3.66029,-0.089 -0.59567,0.1048 -0.86771,0.1967 -1.88011,0.635 -1.15094,0.4983 -2.37348,0.6571 -3.19057,0.4144 -0.20486,-0.061 -0.58766,-0.2504 -0.85066,-0.4213 -0.73042,-0.4747 -1.83942,-0.9767 -2.2433,-1.0155 -0.19563,-0.019 -0.35568,-0.011 -0.35568,0.018 0,0.029 0.0866,0.1999 0.19249,0.3805 0.40664,0.6939 0.47367,1.2883 0.29157,2.5855 -0.0871,0.6204 -0.095,0.9505 -0.0364,1.5198 0.2522,2.4504 1.59358,3.7356 4.20321,4.0272 0.92994,0.1039 2.67543,0.093 3.5363,-0.021 z m 12.55337,-17.1941 c -0.0403,-2.0078 -0.13155,-2.6578 -0.55089,-3.9251 -0.69388,-2.0971 -2.01553,-3.2971 -3.78775,-3.4393 l -0.51451,-0.041 0.5962,0.2129 c 0.77549,0.277 1.02461,0.4087 1.54795,0.8186 1.07706,0.8436 1.95026,2.6053 2.31987,4.6804 0.15006,0.8425 0.32925,2.5707 0.34537,3.3309 0.007,0.3274 0.0277,0.4949 0.0461,0.3721 0.0184,-0.1228 0.0174,-1.0269 -0.002,-2.0092 z m -31.30148,18.0764 c 0.004,-0.087 0.0212,-0.1043 0.045,-0.045 0.0215,0.054 0.0189,0.1179 -0.006,0.1426 -0.0247,0.025 -0.0423,-0.019 -0.0391,-0.098 z m 0.30354,-0.2542 c 0,-0.1024 0.0169,-0.1442 0.0375,-0.093 0.0206,0.051 0.0206,0.1349 0,0.1861 -0.0206,0.051 -0.0375,0.01 -0.0375,-0.093 z m -0.11308,-0.4837 c -0.0236,-0.061 -0.0104,-0.1117 0.0292,-0.1117 0.0396,0 0.0721,0.05 0.0721,0.1117 0,0.061 -0.0132,0.1116 -0.0292,0.1116 -0.0161,0 -0.0485,-0.05 -0.0721,-0.1116 z m 3.31288,-4.2788 c 0,-0.1024 0.0169,-0.1442 0.0375,-0.093 0.0206,0.051 0.0206,0.1349 0,0.1861 -0.0206,0.051 -0.0375,0.01 -0.0375,-0.093 z m 29.17307,-10.6785 c 0.002,-0.1227 0.0182,-0.164 0.0371,-0.092 0.0189,0.072 0.0176,0.1729 -0.003,0.2233 -0.0204,0.05 -0.0358,-0.01 -0.0343,-0.1317 z M 188.7758,150.8744 c 0.004,-0.087 0.0212,-0.1044 0.045,-0.045 0.0215,0.054 0.0188,0.1179 -0.006,0.1426 -0.0247,0.025 -0.0423,-0.019 -0.0391,-0.098 z"
         id="path15906-4" />
      <path
         style="fill:#ec4b53;stroke-width:0.999999"
         d="m 170.74919,178.799 c -0.53295,-0.193 -0.75271,-0.6397 -0.59525,-1.21 0.0587,-0.2125 0.0929,-0.2514 0.14968,-0.1704 0.0532,0.076 0.0615,0.049 0.0301,-0.095 -0.07,-0.3218 0.62772,-1.0217 1.39984,-1.4043 1.03201,-0.5113 1.892,-0.554 2.39791,-0.1188 0.30485,0.2622 0.33268,0.8128 0.0684,1.353 -0.54273,1.1093 -2.43692,2.0126 -3.45069,1.6456 z m -0.26029,-0.5871 c -0.0206,-0.051 -0.0375,-0.01 -0.0375,0.093 0,0.1024 0.0169,0.1442 0.0375,0.093 0.0207,-0.051 0.0207,-0.1349 0,-0.1861 z m -0.0744,-0.4465 c -0.0206,-0.051 -0.0375,-0.01 -0.0375,0.093 0,0.1023 0.0169,0.1441 0.0375,0.093 0.0206,-0.051 0.0206,-0.1349 0,-0.1861 z m 15.61488,1.059 c -2.4881,-0.1483 -3.87557,-0.7026 -4.93576,-1.9716 -0.58291,-0.6977 -0.61718,-0.8608 -0.0634,-0.3016 0.57662,0.5823 1.20636,0.9739 1.98535,1.2346 2.13189,0.7134 5.63359,0.6435 8.18554,-0.1634 0.90161,-0.285 2.31497,-0.9694 3.11757,-1.5096 1.82532,-1.2284 3.53302,-3.0558 4.91767,-5.2622 1.47576,-2.3516 2.29292,-4.555 2.61696,-7.0564 0.13748,-1.0613 0.11678,-3.5026 -0.0388,-4.5765 -0.31478,-2.1725 -0.92432,-4.0922 -1.63035,-5.1345 -0.10698,-0.158 -0.0373,-0.1144 0.23826,0.1488 1.71589,1.6392 2.62518,4.9188 2.31934,8.3654 -0.30399,3.4257 -1.37734,6.5075 -3.24179,9.3079 -2.46164,3.6975 -5.8205,6.0056 -9.78713,6.7255 -0.64083,0.1163 -2.26344,0.2767 -2.60449,0.2574 -0.10232,-0.01 -0.58787,-0.034 -1.079,-0.064 z m -12.53141,-5.702 c -0.0277,-1.719 1.54107,-3.3825 3.71492,-3.9394 0.68084,-0.1744 1.72986,-0.1228 2.09546,0.1032 0.3276,0.2024 0.52525,0.5916 0.49024,0.9653 -0.0207,0.221 -0.0374,0.247 -0.0824,0.1283 -0.2916,-0.7687 -0.53228,-0.955 -1.28254,-0.9929 -0.71147,-0.036 -1.53203,0.2068 -2.6445,0.7824 -1.36343,0.7054 -1.98799,1.5027 -2.18806,2.793 l -0.0957,0.6174 z m 15.68979,-17.2303 c -0.83256,-1.0533 -1.31749,-2.6983 -1.48273,-5.03 -0.061,-0.8611 0.0153,-2.69 0.11926,-2.8582 0.0236,-0.038 0.10934,-0.01 0.19041,0.064 0.15279,0.1383 0.1523,0.2103 -0.005,0.8065 -0.11736,0.4435 -0.0984,1.8152 0.0368,2.67 0.13672,0.864 0.54707,2.2807 0.80763,2.7882 0.26305,0.5124 0.53548,0.8509 0.80149,0.9959 0.21365,0.1165 0.25326,0.118 0.40919,0.016 0.13777,-0.09 0.1197,-0.044 -0.0895,0.2303 -0.14416,0.1888 -0.28247,0.4245 -0.30736,0.5237 -0.0249,0.099 -0.0743,0.1803 -0.10987,0.1803 -0.0355,0 -0.20201,-0.1738 -0.36995,-0.3863 z"
         id="path15904-33" />
    </g>
  </g>
</svg>
